<?xml version="1.0" encoding="UTF-8" standalone="no"?>
<!-- Created with Inkscape (http://www.inkscape.org/) -->

<svg
   xmlns:dc="http://purl.org/dc/elements/1.1/"
   xmlns:cc="http://creativecommons.org/ns#"
   xmlns:rdf="http://www.w3.org/1999/02/22-rdf-syntax-ns#"
   xmlns:svg="http://www.w3.org/2000/svg"
   xmlns="http://www.w3.org/2000/svg"
   xmlns:sodipodi="http://sodipodi.sourceforge.net/DTD/sodipodi-0.dtd"
   xmlns:inkscape="http://www.inkscape.org/namespaces/inkscape"
   width="600"
   height="600"
   id="svg2"
   version="1.1"
   inkscape:version="0.48.4 r9939"
   sodipodi:docname="d&amp;h.svg">
  <defs
     id="defs4" />
  <sodipodi:namedview
     id="base"
     pagecolor="#ffffff"
     bordercolor="#666666"
     borderopacity="1.0"
     inkscape:pageopacity="0.0"
     inkscape:pageshadow="2"
     inkscape:zoom="0.68111408"
     inkscape:cx="354.19479"
     inkscape:cy="327.02727"
     inkscape:document-units="px"
     inkscape:current-layer="layer6"
     showgrid="false"
     inkscape:window-width="1280"
     inkscape:window-height="748"
     inkscape:window-x="-8"
     inkscape:window-y="-8"
     inkscape:window-maximized="1" />
  <metadata
     id="metadata7">
    <rdf:RDF>
      <cc:Work
         rdf:about="">
        <dc:format>image/svg+xml</dc:format>
        <dc:type
           rdf:resource="http://purl.org/dc/dcmitype/StillImage" />
        <dc:title></dc:title>
      </cc:Work>
    </rdf:RDF>
  </metadata>
  <g
     inkscape:groupmode="layer"
     id="layer6"
     inkscape:label="D&amp;H"
     style="display:inline">
    <g
       id="g3157"
       transform="translate(-4.4770272e-6,-3.8456124e-6)">
      <path
         inkscape:connector-curvature="0"
         id="path3154"
         d="m 50.708306,12.197599 0,84.858797 3.10459,57.952354 11.383497,87.96338 19.662404,83.82394 24.836723,60.02207 38.28994,58.98722 55.88263,63.12666 30.01103,25.87159 62.09181,52.77803 5.17431,1.03486 78.64962,-66.23125 71.40557,-78.64962 43.46427,-68.30098 19.6624,-51.74317 17.59268,-66.23126 12.41836,-91.06798 6.20918,-92.102839 -4.13945,-63.126666 z"
         style="fill:#002f6f;fill-opacity:1" />
      <g
         transform="matrix(2.2869548,0,0,2.2869548,-386.10449,-388.01019)"
         id="g3142">
        <path
           style="fill:#f1c107;fill-opacity:1;display:inline"
           d="m 406.28125,172.1875 c -0.81921,0.0137 -1.71953,0.0625 -2.71875,0.0625 -3.9969,0 -76.3707,0.38495 -104.03125,0.5625 -27.66055,-0.17755 -99.0656,-0.5625 -103.0625,-0.5625 -1.49883,0 -2.82171,-0.0645 -3.90625,-0.0312 -1.80756,0.0555 -3.00018,0.39077 -3.40625,1.90625 -1.04034,3.8826 -0.58808,30.82611 -0.4375,35.96875 0.2984,10.19101 1.58771,26.44947 3.21875,39.59375 3.7914,30.5543 6.36692,38.30563 6.53125,39.125 6.77467,33.77936 18.53447,59.30585 41.59375,86.03125 23.05927,26.7254 57.43473,54.65625 59.46875,54.65625 2.03402,0 36.37823,-27.93085 59.4375,-54.65625 23.05928,-26.7254 35.78783,-52.25189 42.5625,-86.03125 0.16433,-0.81937 2.73985,-8.5707 6.53125,-39.125 1.63104,-13.14428 2.9516,-29.40274 3.25,-39.59375 0.15058,-5.14265 0.57159,-32.08615 -0.46875,-35.96875 -0.48728,-1.81858 -2.10486,-1.97846 -4.5625,-1.9375 z m -209.9375,4.5625 c 1.04629,-0.0321 2.30403,0.0312 3.75,0.0312 3.85594,0 72.75247,0.35997 99.4375,0.53125 26.68504,-0.17128 96.51906,-0.53125 100.375,-0.53125 3.85593,0 6.40446,-0.52675 7.03125,1.8125 1.00366,3.74568 0.58276,29.72622 0.4375,34.6875 -0.28788,9.83161 -1.55149,25.53802 -3.125,38.21875 -3.65769,29.47673 -6.15396,36.95953 -6.3125,37.75 -6.53575,32.58805 -18.81646,57.18588 -41.0625,82.96875 -22.24603,25.78286 -55.38146,52.75 -57.34375,52.75 -1.96229,0 -35.12896,-26.96714 -57.375,-52.75 -22.24604,-25.78287 -33.58925,-50.3807 -40.125,-82.96875 -0.15852,-0.79047 -2.62356,-8.27327 -6.28125,-37.75 -1.57352,-12.68073 -2.83713,-28.38714 -3.125,-38.21875 -0.14527,-4.96127 -0.56614,-30.94182 0.4375,-34.6875 0.39176,-1.46202 1.53744,-1.79015 3.28125,-1.84375 z"
           id="path2997"
           inkscape:connector-curvature="0" />
        <path
           style="fill:#f3c108;fill-opacity:1;display:inline"
           d="m 202.06077,181.24552 c -1.64754,0.0511 -2.73459,0.35937 -3.10472,1.75295 -0.94823,3.57036 -0.53601,28.34702 -0.39876,33.07607 0.27199,9.37144 1.44715,24.32235 2.9338,36.40956 3.45577,28.09707 5.80329,35.22503 5.95306,35.9785 6.17494,31.06276 16.89369,54.53636 37.91161,79.11245 21.01793,24.57609 52.35022,50.26068 54.20418,50.26068 1.85396,0 33.15781,-25.68459 54.17572,-50.26068 21.01792,-24.57609 32.63086,-48.04969 38.80581,-79.11245 0.14978,-0.75347 2.4973,-7.88143 5.95307,-35.9785 1.48664,-12.08721 2.6903,-27.03812 2.96229,-36.40956 0.13724,-4.72906 0.52098,-29.50571 -0.42727,-33.07607 -0.59219,-2.22977 -2.99361,-1.7242 -6.63666,-1.7242 -3.64307,0 -69.62109,0.35399 -94.83296,0.51726 -25.21184,-0.16327 -90.29566,-0.51726 -93.93873,-0.51726 -1.36614,0 -2.57191,-0.0592 -3.56044,-0.0288 z"
           id="path2997-7-4"
           inkscape:connector-curvature="0"
           sodipodi:nodetypes="ssssssssssssscss" />
        <path
           style="fill:#002f6f;fill-opacity:1;display:inline"
           d="m 357.09761,289.63214 c -0.14004,-4.10741 2.82649,-6.80164 6.10714,-6.79854 3.28065,0.003 6.06527,2.82703 6.06527,6.40944 0,2.63002 -0.7763,5.16118 -2.2672,7.38371 -1.49089,2.22252 -5.67381,5.98692 -6.34814,5.31259 -0.67433,-0.67433 2.39979,-6.3009 1.79434,-6.65045 -2.09135,-1.20744 -5.21136,-1.54935 -5.35141,-5.65675 z"
           id="path3076"
           inkscape:connector-curvature="0"
           sodipodi:nodetypes="zzszzsz" />
        <path
           style="fill:#002f6f;fill-opacity:1;display:inline"
           d="m 370.89786,284.74838 c -0.14004,-4.10741 2.82649,-6.80164 6.10714,-6.79854 3.28065,0.003 6.06527,2.82703 6.06527,6.40944 0,2.63002 -0.7763,5.16118 -2.2672,7.38371 -1.49089,2.22252 -6.01894,5.81436 -6.69327,5.14003 -0.67433,-0.67433 2.14095,-6.04206 1.5355,-6.39161 -2.09135,-1.20744 -4.60739,-1.63563 -4.74744,-5.74303 z"
           id="path3076-0"
           inkscape:connector-curvature="0"
           sodipodi:nodetypes="zzszzsz" />
        <path
           style="fill:#002f6f;fill-opacity:1;display:inline"
           d="m 236.07771,226.27197 c -3.48505,0 -4.2431,-3.91195 -4.2431,-7.03053 0,-3.11858 1.21245,-5.63639 3.04051,-7.77058 1.82806,-2.1342 5.40281,-5.58772 5.77513,-4.19816 0.37232,1.38955 -0.60559,3.29539 -0.87227,4.29067 -0.26669,0.99528 0.42424,1.86659 2.03516,1.85014 1.61092,-0.0164 3.25022,-1.86262 4.81036,-3.42276 1.56014,-1.56014 5.38423,-3.37062 5.64292,-2.40518 0.25869,0.96544 -2.31267,4.53284 -2.31267,4.53284 0,0 5.28389,2.67109 5.18039,5.64292 -0.1035,2.97184 -1.97078,7.77058 -6.568,7.77058 -4.59722,0 -6.10546,-2.59019 -6.10546,-2.59019 0,0 -3.98314,3.33025 -6.38297,3.33025 z"
           id="path3096"
           inkscape:connector-curvature="0"
           sodipodi:nodetypes="szzzzzzzczzcs" />
        <path
           style="fill:#002f6f;fill-opacity:1;display:inline"
           d="m 290.5625,201.53125 c -2.80128,-0.15706 -6.35282,3.78762 -9.5,7.6875 -2.85694,3.54022 -7.53849,11.6933 -8.9375,14.15625 -19.48429,7.08023 -41.36314,15.34261 -40.40625,17 0.22159,0.3838 16.6811,-3.97057 37.15625,-9.6875 -0.74351,1.51739 -1.73755,3.52805 -2.3125,4.53125 -0.86559,1.51034 -0.42873,2.57841 -1.8125,2.90625 -0.49804,0.11799 -0.8478,0.0427 -1.125,-0.0937 0.16716,-1.0332 0.19593,-1.6875 -0.0625,-1.6875 -2.4728,0 -9.49737,1.13891 -10,3 -2.0222,7.48758 -1.59073,11.51802 -4.21875,18.40625 -2.62802,6.88824 -7.91353,14.99514 -12.15625,22.34375 -0.52714,0.91304 -2.05179,7.00865 0.46875,8.5 2.52054,1.49135 7.61685,-2.94911 8.1875,-3.9375 2.63304,-4.56056 4.74339,-8.51785 6.65625,-12.71875 1.91286,-4.2009 4.84375,-12.4375 4.84375,-12.4375 0,0 0.14228,-0.3959 0.15625,-0.4375 0.0314,0.008 0.0638,-0.0134 0.0937,0 0.72704,0.32649 0.71676,0.96029 0.65625,2.15625 -0.0605,1.19596 -1.03099,2.84097 -1.0625,4.0625 -0.0315,1.22153 -0.15401,1.7203 1.1875,2.40625 1.34151,0.68595 2.4714,-0.59972 4.21875,-2.75 1.74736,-2.15027 2.37854,-7.05697 3.25,-9.6875 0.87146,-2.63053 1.41836,-4.23076 2.28125,-5.78125 0.86289,-1.5505 1.36979,-2.08572 2.1875,-1.875 0.81771,0.21072 1.00182,1.59683 0.9375,2.71875 -0.0643,1.12192 -0.38753,2.25791 -0.125,3.125 0.68524,2.2632 1.8152,1.91683 3.53125,2.0625 1.71605,0.14567 3.61566,-1.43919 5.03125,-2.40625 1.41559,-0.96706 1.94738,-2.87607 3.4375,-3.21875 1.49012,-0.34268 2.38944,1.46366 4.28125,1.34375 1.8918,-0.1199 3.61451,-1.34364 5.875,-3.15625 2.26049,-1.81261 5.00929,-6.34739 6.96875,-8.125 1.95946,-1.77761 3.15497,-2.09407 4.25,-2.96875 1.09503,-0.87468 2.06858,-1.36071 2.125,-2.25 0.0564,-0.8893 -0.61594,-1.14786 -1.8125,-1.1875 -1.19657,-0.0396 -1.97063,-0.237 -3.96875,1.15625 -1.99812,1.3933 -4.30534,4.9621 -5.96875,7.65625 -0.64976,1.05238 -2.10978,2.21804 -3.0625,2.0625 -0.95272,-0.15554 -1.55347,-0.46453 -1.28125,-1.65625 0.27221,-1.19172 3.13666,-2.94773 3.5625,-4.65625 0.42584,-1.70852 -0.0406,-4.59567 -1.03125,-5.8125 -0.99072,-1.21683 -2.02025,-1.33651 -3.25,-1.3125 -1.22975,0.024 -1.90535,0.41112 -3.375,1.53125 -1.46965,1.12013 -3.31705,1.85374 -4.9375,5.375 -0.5825,1.26578 -0.68515,2.60893 -0.65625,4.125 0.0289,1.51606 -0.25977,3.51121 -0.625,4.6875 -0.36523,1.17629 -1.18568,2.63756 -2.28125,2.59375 -1.09557,-0.0438 -1.33823,-0.24263 -1.125,-2.59375 0.21323,-2.35112 1.36213,-6.1796 -0.1875,-7.40625 -1.54955,-1.22665 -1.93634,1.3237 -2.875,0.53125 -0.93866,-0.79245 -0.19985,-3.00921 0.84375,-4.59375 1.04361,-1.58454 3.25,-4.1875 3.25,-4.1875 l 3.34375,-3.84375 c 31.78068,-9.01247 67.07788,-19.51501 67.15625,-20.875 0.1418,-2.46067 -14.01775,-0.0379 -16.46875,-0.0625 -12.01238,-0.12076 -17.78221,-1.50674 -18.8125,-0.84375 -5.40215,3.47627 -6.84246,5.17919 -12.09375,7.46875 -1.05389,0.45949 -4.95827,1.86927 -9.84375,3.625 0.82267,-1.7482 1.77503,-3.81053 2.09375,-5 0.54078,-2.01822 2.11545,-8.73878 -2.125,-9.875 -0.17991,-0.0482 -0.3445,-0.0833 -0.53125,-0.0937 z m -4.4375,9.90625 c 0.11855,0.0117 0.2516,0.0564 0.375,0.125 0.94309,0.52412 0.41141,1.36471 -0.0937,3.25 -0.32539,1.21439 -1.20195,2.84809 -1.90625,4.09375 -1.51821,0.54469 -3.08948,1.10115 -4.71875,1.6875 0.22224,-0.85036 0.56848,-1.91108 1.125,-2.875 1.15087,-1.99336 1.7117,-3.29338 2.75,-4.28125 0.90851,-0.86439 1.63891,-2.082 2.46875,-2 z m 2,24.375 c 0.26167,-0.0178 0.48099,0.0474 0.6875,0.21875 0.82605,0.68526 0.19653,2.18009 -0.34375,3.09375 -0.54028,0.91366 -1.69792,2.62496 -2.71875,2.09375 -1.15912,-0.60319 -0.26409,-2.85117 0.5,-3.75 0.57307,-0.67412 1.08998,-1.6029 1.875,-1.65625 z M 243.75,276 c 0.0541,0.005 0.10589,0.0384 0.15625,0.0625 0.80573,0.38528 -0.0937,2.5 -0.0937,2.5 0,0 -1.3126,2.04286 -2.0625,1.6875 -0.7499,-0.35536 0,-2.34375 0,-2.34375 0,0 1.18912,-1.9766 2,-1.90625 z"
           id="path3099"
           inkscape:connector-curvature="0" />
        <path
           style="fill:#002f6f;fill-opacity:1"
           d="m 385.8125,212.78125 c -1.77309,0.11385 -9.69122,6.15731 -11.3125,7.5 -3.18511,3.22657 -6.90627,8.19808 -10.75,13.75 -3.84373,5.55192 -7.29485,11.95876 -12,19.71875 -3.11229,5.13297 -6.9511,13.5896 -9.875,20.71875 -0.55329,0.59129 -0.9513,1.8621 -2.03125,1.75 -1.69404,-0.17584 -4.03707,-3.20983 -5,-4.15625 -0.96293,-0.94642 -0.9051,-0.50513 -1.03125,-1.1875 -0.0262,-0.14149 -0.16036,-0.0226 -0.28125,0.1875 0.24776,-0.56605 0.53772,-1.1995 1.125,-2.625 2.90273,-7.04573 19.22684,-37.58565 17.90625,-38.90625 -0.0206,-0.0206 -0.0605,-0.0266 -0.0937,-0.0312 -2.10101,-0.29537 -29.02776,30.58491 -30.9375,31.6875 -1.94005,1.12009 1.35493,-6.62696 1.71875,-9.6875 0.36382,-3.06054 0.71649,-8.19626 0.1875,-8.375 -0.52899,-0.17875 -4.56212,6.96664 -6.75,10.28125 -2.18788,3.31461 -4.48706,8.56482 -6.125,8.90625 -1.63794,0.34143 -3.43412,-2.92976 -5.8125,-3.46875 -2.37837,-0.53899 -5.41492,-0.73078 -7.0625,1.21875 -1.64758,1.94954 -1.22008,5.1141 -0.0937,7.25 1.1263,2.1359 4.6455,2.20628 4.65625,3.8125 0.0101,1.51322 -6.53089,5.35901 -7.3125,5.8125 -0.25963,-4.65766 -1.18766,-8.36566 -2.625,-11.1875 -2.0743,-4.07234 -4.17539,-5.28891 -6.6875,-6.46875 -1.57007,-0.7374 -3.14896,-1.16449 -4.65625,-1.1875 -0.90438,-0.0138 -1.77045,0.11165 -2.625,0.375 -2.27879,0.70226 -3.91868,1.89877 -5.3125,4.53125 -1.39382,2.63248 -1.94189,7.67023 -1.1875,10.84375 0.75439,3.17352 2.80088,5.73364 4.71875,7.28125 1.91787,1.54761 5.15059,1.0827 5.71875,2.15625 0.56816,1.07355 -2.37176,11.68705 -4.53125,18.09375 -2.15949,6.4067 -5.80691,16.05302 -8.65625,20.09375 -2.84934,4.04073 -3.82763,6.03561 -5.71875,5.3125 -1.89112,-0.72311 -0.29111,-2.85241 0.1875,-4.90625 0.4786,-2.05383 3.14826,-4.38765 3.34375,-6.5 0.19549,-2.11235 0.0452,-3.13993 -1.15625,-4.15625 -1.20147,-1.01632 -3.78549,1.30909 -5.125,-0.1875 -1.33951,-1.49659 0.5219,-5.20735 0.96875,-6.875 0.44685,-1.66765 6.85433,-12.0918 7.875,-16.34375 1.02067,-4.25195 1.48212,-7.37358 0.40625,-8.0625 -1.07587,-0.68892 -12.808,5.18024 -13.96875,6.875 -1.16075,1.69476 0.40943,4.50667 -1.96875,19.09375 -1.20044,7.36317 -1.41949,9.78904 -2.5625,11.40625 -2.70582,3.82841 -7.65846,6.95358 -10.25,9.65625 -2.59154,2.70267 -4.23335,4.204 -5.6875,6.90625 -1.45415,2.70225 -2.41345,6.55423 -1.96875,9.8125 0.4447,3.25827 -0.0512,7.11969 4.71875,7.875 4.7699,0.75531 6.18067,-3.20932 8.0625,-6.46875 1.88183,-3.25943 5.4025,-12.73179 7.09375,-16.5625 1.69125,-3.83071 1.73939,-5.33984 2.9375,-6.46875 1.19811,-1.12891 1.76182,-1.51155 2.5625,-1 0.80068,0.51155 0.41593,2.22995 -0.28125,3.4375 -0.69718,1.20755 -1.83631,3.27996 -1.6875,5.4375 0.14881,2.15754 0.45962,4.5282 2.75,5.5 2.29038,0.9718 6.4275,-0.46257 11.625,-3.34375 5.1975,-2.88118 12.11546,-11.26569 16.34375,-19.09375 4.22829,-7.82807 6.75632,-21.1149 7.28125,-29.125 0.0473,-0.7214 0.0711,-1.40704 0.0937,-2.09375 0.90681,-0.3112 3.5414,-1.2461 4.78125,-2.25 1.49732,-1.21237 3.09875,-2.9731 3.90625,-2.34375 0.8075,0.62935 -1.02238,3.4206 -1.5,5.96875 -0.47762,2.54815 -2.11198,8.48622 -1.1875,9.34375 0.92448,0.85753 2.81439,-0.81487 4.3125,-1.21875 1.49811,-0.40389 4.01919,-0.47972 4.5,-1.3125 0.48081,-0.83279 0.11074,-5.53124 0.59375,-7.25 0.483,-1.71877 0.79674,-3.92133 2.15625,-3.8125 1.35951,0.10883 0.86284,3.27162 1.8125,4.5 0.94966,1.22837 3.66169,2.17479 2.96875,3.375 -2.80879,4.86497 -5.59025,8.63528 -7.96875,13.5625 -2.37849,4.92722 -7.22535,16 -5.96875,16 1.2566,0 6.40473,-3.33434 9.78125,-5.03125 3.37653,-1.69692 9.39151,-3.80269 10.28125,-5.34375 0.88973,-1.54107 1.93672,-7.39117 2.6875,-10.53125 0.75077,-3.14009 1.02612,-7.30191 1.8125,-8.3125 0.78638,-1.01059 2.77048,-1.66454 4.84375,-2.40625 1.57962,-0.56511 3.86059,-1.28299 5.84375,-1.59375 -0.0858,0.24735 -0.20464,0.55292 -0.28125,0.78125 -1.24298,3.73218 -3.04235,10.12838 -2.46875,17.34375 0.37084,2.52782 5.23963,0.26746 7.78125,-0.53125 2.54163,-0.79871 6.24801,-1.99801 7.3125,-3.0625 1.06449,-1.06449 1.34618,-8.30105 2.15625,-13 0.81007,-4.69895 1.84681,-10.3638 3.03125,-11.875 2.12796,-2.71502 11.28669,-9.42707 14.84375,-13.21875 3.55705,-3.79168 7.43554,-7.27243 7.03125,-8.78125 -0.40428,-1.50881 -6.37833,3.71207 -9.09375,5.875 -2.71542,2.16293 -5.1082,4.4077 -6.6875,5.46875 -1.57929,1.06105 -1.77214,1.41913 -2.40625,1.21875 -0.63411,-0.20038 -1.03665,-1.03577 -1.09375,-2.21875 -0.0571,-1.18298 0.4277,-1.76499 1.71875,-4.90625 1.29105,-3.14126 4.88763,-9.04772 7,-13.09375 2.11237,-4.04603 4.07616,-7.85987 5.9375,-10.78125 1.86134,-2.92138 3.13796,-4.31459 5,-6.84375 1.86204,-2.52916 4.87413,-6.22318 6.15625,-8.3125 1.28212,-2.08932 2.2823,-3.48297 1.5,-4.1875 -0.06,-0.0485 -0.13179,-0.0388 -0.25,-0.0312 z m -56.75,47.25 c 0.11364,-0.0169 0.2193,0.019 0.28125,0.0625 0.99119,0.69645 -2.80513,7.43013 -3.625,8.25 -0.81988,0.81987 -4.63986,0.0133 -5.0625,-0.71875 -0.39623,-0.68629 6.70165,-7.34033 8.40625,-7.59375 z m -25.84375,3.75 c 0.68865,10e-4 1.4964,0.36798 2.03125,0.78125 0.85577,0.66123 1.6266,1.80443 0.96875,2.59375 -0.65785,0.78932 -2.22281,0.49984 -3.03125,-0.0937 -0.80844,-0.59367 -1.56246,-1.93806 -0.96875,-2.8125 0.22264,-0.32792 0.58681,-0.46942 1,-0.46875 z M 279.5,267.125 c 1.98044,-0.14832 2.66131,1.88438 2.96875,4.5 0.30744,2.61561 0.84582,4.68543 -0.71875,6.25 -0.59771,0.59771 -3.90255,-3.85249 -4.1875,-6.125 -0.28495,-2.27251 -0.0429,-4.47668 1.9375,-4.625 z m 42.34375,5.71875 c 0.29278,-0.0685 0.56413,-0.022 0.8125,0.15625 0.99348,0.7131 0.30073,2.65299 -0.375,3.6875 -0.67573,1.03451 -1.3183,2.43877 -2.40625,1.75 -1.08794,-0.68876 -0.21808,-2.87361 0,-3.6875 0.16356,-0.61042 1.09042,-1.70088 1.96875,-1.90625 z m 12.125,3.5 c 0.5611,0.008 1.05369,0.18342 1.21875,0.65625 0.33012,0.94566 -0.93105,2.0486 -1.84375,2.40625 -0.9127,0.35765 -2.41507,0.45447 -2.8125,-0.46875 -0.39743,-0.92322 0.82383,-1.87985 1.78125,-2.25 0.47871,-0.18507 1.09515,-0.35204 1.65625,-0.34375 z M 244.875,330.25 c 0.09,-6.7e-4 0.16182,0.0369 0.21875,0.0937 0.91088,0.91088 -2.70562,8.5384 -4.1875,10.875 -1.48188,2.3366 -1.80179,4.18145 -3.40625,3.5625 -1.60446,-0.61895 -0.67823,-3.09209 0.28125,-5.8125 0.89951,-2.55039 5.74313,-8.70877 7.09375,-8.71875 z"
           id="path3115"
           inkscape:connector-curvature="0" />
      </g>
    </g>
  </g>
</svg>
