<?xml version="1.0" encoding="UTF-8" standalone="no"?>
<!-- Created with Inkscape (http://www.inkscape.org/) -->

<svg
   xmlns:dc="http://purl.org/dc/elements/1.1/"
   xmlns:cc="http://creativecommons.org/ns#"
   xmlns:rdf="http://www.w3.org/1999/02/22-rdf-syntax-ns#"
   xmlns:svg="http://www.w3.org/2000/svg"
   xmlns="http://www.w3.org/2000/svg"
   xmlns:sodipodi="http://sodipodi.sourceforge.net/DTD/sodipodi-0.dtd"
   xmlns:inkscape="http://www.inkscape.org/namespaces/inkscape"
   width="600"
   height="600"
   id="svg2"
   version="1.1"
   inkscape:version="0.48.4 r9939"
   sodipodi:docname="chessie.svg">
  <defs
     id="defs4" />
  <sodipodi:namedview
     id="base"
     pagecolor="#ffffff"
     bordercolor="#666666"
     borderopacity="1.0"
     inkscape:pageopacity="0.0"
     inkscape:pageshadow="2"
     inkscape:zoom="0.55048947"
     inkscape:cx="286.51756"
     inkscape:cy="417.06355"
     inkscape:document-units="px"
     inkscape:current-layer="layer2"
     showgrid="false"
     inkscape:window-width="1280"
     inkscape:window-height="748"
     inkscape:window-x="-8"
     inkscape:window-y="-8"
     inkscape:window-maximized="1" />
  <metadata
     id="metadata7">
    <rdf:RDF>
      <cc:Work
         rdf:about="">
        <dc:format>image/svg+xml</dc:format>
        <dc:type
           rdf:resource="http://purl.org/dc/dcmitype/StillImage" />
        <dc:title />
      </cc:Work>
    </rdf:RDF>
  </metadata>
  <g
     inkscape:groupmode="layer"
     id="layer2"
     inkscape:label="C"
     style="opacity:1;display:inline">
    <path
       style="fill:#000066;fill-opacity:1"
       d="m 577.52351,150.49667 c 0,0 -68.11589,-147.1854228 -261.34107,-147.1854228 -193.22516,0 -293.705947,157.6092928 -293.705947,299.5674128 0,141.95812 115.872227,293.81009 293.705947,293.81009 177.83374,0 259.02319,-144.86756 259.02319,-144.86756 L 459.36346,385.00301 c 0,0 -20.15674,61.69717 -26.70749,70.29501 -24.97467,17.19567 -36.17392,9.31788 -52.15232,18.54303 -102.87023,59.39215 -113.57618,56.78807 -113.57618,56.78807 0,0 -33.77465,9.58387 -48.6755,-16.22516 -11.85484,-20.53321 10.43047,-40.56291 10.43047,-40.56291 l 49.83444,-35.92714 73.01324,-39.404 c 0,0 -65.06516,-31.817 -73.01324,-37.08608 -8.18741,-5.42773 -66.58328,-52.48946 -76.6766,-62.58279 C 180.97976,277.9805 68.033303,250.62439 68.033303,236.61055 c 0,-2.52857 29.378885,12.07665 39.101077,14.47287 9.72219,2.39622 9.33872,1.43495 17.90169,1.88438 8.56297,0.44943 33.4479,0 33.4479,0 0,0 18.14686,-62.81896 75.23787,-95.78047 57.09102,-32.96151 102.59631,-27.78705 102.59631,-27.78705 0,0 28.44833,-66.496855 39.1889,-67.686386 10.74057,-1.189531 11.9077,7.727301 17.09971,18.524686 5.19201,10.797385 2.86936,22.05354 6.05919,32.65476 2.54074,8.44402 10.32805,16.48838 10.32805,24.35448 0,15.25939 -2.74285,21.1825 7.84552,38.46422 4.06884,6.64094 14.25172,9.7499 18.51655,14.24978 4.26483,4.49987 7.83738,11.39979 7.83738,11.39979 l 10.68733,16.38725 z"
       id="path2997"
       inkscape:connector-curvature="0"
       sodipodi:nodetypes="czzzcccscscccscszzczczzasszccc" />
  </g>
</svg>
