<?xml version="1.0" encoding="UTF-8" standalone="no"?>
<!-- Created with Inkscape (http://www.inkscape.org/) -->

<svg
   xmlns:dc="http://purl.org/dc/elements/1.1/"
   xmlns:cc="http://creativecommons.org/ns#"
   xmlns:rdf="http://www.w3.org/1999/02/22-rdf-syntax-ns#"
   xmlns:svg="http://www.w3.org/2000/svg"
   xmlns="http://www.w3.org/2000/svg"
   xmlns:sodipodi="http://sodipodi.sourceforge.net/DTD/sodipodi-0.dtd"
   xmlns:inkscape="http://www.inkscape.org/namespaces/inkscape"
   width="720"
   height="720"
   id="svg2"
   version="1.1"
   inkscape:version="0.48.4 r9939"
   sodipodi:docname="b-and-o_color.svg">
  <defs
     id="defs4" />
  <sodipodi:namedview
     id="base"
     pagecolor="#ffffff"
     bordercolor="#666666"
     borderopacity="1.0"
     inkscape:pageopacity="0.0"
     inkscape:pageshadow="2"
     inkscape:zoom="0.40915876"
     inkscape:cx="98.482596"
     inkscape:cy="496.45363"
     inkscape:document-units="px"
     inkscape:current-layer="layer7"
     showgrid="false"
     inkscape:window-width="1280"
     inkscape:window-height="748"
     inkscape:window-x="-8"
     inkscape:window-y="-8"
     inkscape:window-maximized="1"
     units="in" />
  <metadata
     id="metadata7">
    <rdf:RDF>
      <cc:Work
         rdf:about="">
        <dc:format>image/svg+xml</dc:format>
        <dc:type
           rdf:resource="http://purl.org/dc/dcmitype/StillImage" />
        <dc:title></dc:title>
      </cc:Work>
    </rdf:RDF>
  </metadata>
  <g
     inkscape:groupmode="layer"
     id="layer4"
     inkscape:label="BG Circle"
     style="display:none"
     transform="translate(0,-332.362)"
     sodipodi:insensitive="true">
    <path
       sodipodi:type="arc"
       style="fill:#000055;fill-opacity:1"
       id="path3066"
       sodipodi:cx="380.30771"
       sodipodi:cy="532.33679"
       sodipodi:rx="120.92156"
       sodipodi:ry="120.92156"
       d="m 501.22927,532.33679 a 120.92156,120.92156 0 1 1 -241.84312,0 120.92156,120.92156 0 1 1 241.84312,0 z"
       transform="matrix(2.8511332,0,0,2.8511332,-724.30793,-825.4011)"
       inkscape:export-filename="C:\Users\robozni\Pictures\Trains\logos\b_and_o-300px.png"
       inkscape:export-xdpi="37.93"
       inkscape:export-ydpi="37.93" />
  </g>
  <g
     inkscape:groupmode="layer"
     id="layer7"
     inkscape:label="Logo"
     style="display:inline"
     transform="translate(0,-332.362)">
    <g
       id="g3114"
       style="fill:#000000;fill-opacity:1"
       transform="matrix(2.8718276,0,0,2.8718276,-711.14682,-819.7001)"
       inkscape:export-filename="C:\Users\robozni\Pictures\Trains\logos\b_and_o-300px.png"
       inkscape:export-xdpi="37.93"
       inkscape:export-ydpi="37.93">
      <path
         inkscape:connector-curvature="0"
         id="path2997"
         d="m 373,402.59375 c -68.44123,0 -123.9375,55.49627 -123.9375,123.9375 0,68.44123 55.49627,123.90625 123.9375,123.90625 27.9161,0 53.65986,-9.24038 74.375,-24.8125 l 0.1875,0 0,-0.15625 c 29.96118,-22.6144 49.34375,-58.49966 49.34375,-98.9375 0,-68.44123 -55.46502,-123.9375 -123.90625,-123.9375 z m 0,10.96875 c 62.38746,0 112.9375,50.58129 112.9375,112.96875 0,4.21306 -0.23837,8.37532 -0.6875,12.46875 l -224.53125,0 c -0.4494,-4.09343 -0.6875,-8.25569 -0.6875,-12.46875 0,-62.38746 50.58129,-112.96875 112.96875,-112.96875 z m -110.40625,137 220.78125,0 c -5.44473,25.14456 -19.25412,47.15748 -38.375,63 l -144,0 c -19.12817,-15.8426 -32.95832,-37.85485 -38.40625,-63 z m 56.125,75.0625 108.5625,0 C 411.17449,634.47102 392.67608,639.5 373,639.5 c -19.67608,0 -38.17024,-5.02898 -54.28125,-13.875 z"
         style="fill:#000000;fill-opacity:1;display:inline" />
      <path
         sodipodi:nodetypes="scss"
         inkscape:connector-curvature="0"
         id="path3859"
         d="m 373.44038,530.75914 c -29.53129,-0.18233 -50.30519,9.39472 -50.30519,9.39472 l 98.851,0 c 3.69291,0 -20.72539,-9.22295 -48.54581,-9.39472 z"
         style="fill:#000000;fill-opacity:1;display:inline" />
      <path
         sodipodi:nodetypes="cssssscc"
         inkscape:connector-curvature="0"
         id="path3863"
         d="m 377.99283,512.40478 c 1.38188,-0.0271 3.89482,0.70508 3.91525,2.20233 l 0.153,11.21362 c 0.0237,1.74145 -2.88542,2.02497 -3.57888,2.00034 -1.6148,-0.0573 -3.76053,-0.0895 -3.76053,-3.05879 l 0,-9.89016 c 0,-2.06998 1.88924,-2.44025 3.27112,-2.46734 z"
         style="fill:#000000;fill-opacity:1;display:inline" />
      <path
         sodipodi:nodetypes="szsszss"
         inkscape:connector-curvature="0"
         id="path3002"
         d="m 328.37615,518.90606 c -1.94938,-9.93238 35.23832,-14.71046 45.78666,-14.71046 10.54834,0 47.19926,2.7924 43.82442,15.38748 -0.43073,1.60752 -8.02879,-2.43555 -17.06066,-5.07634 -9.03187,-2.64078 -19.82541,-4.1045 -26.76376,-4.08245 -6.93835,0.0221 -22.7691,1.80102 -30.74276,4.54142 -7.97366,2.7404 -14.37839,7.33122 -15.0439,3.94035 z"
         style="fill:#000000;fill-opacity:1;display:inline" />
      <path
         sodipodi:nodetypes="zzzzz"
         inkscape:connector-curvature="0"
         id="path3006"
         d="m 336.21889,499.18501 c -0.84523,-4.22889 1.63512,-18.34386 37.0454,-18.49715 35.41029,-0.15329 37.68572,14.13081 37.45417,17.98618 -0.23154,3.85536 -10.58436,-9.07915 -37.45417,-8.8909 -26.8698,0.18825 -36.20016,13.63076 -37.0454,9.40187 z"
         style="fill:#000000;fill-opacity:1;display:inline" />
      <path
         sodipodi:nodetypes="sszsszs"
         inkscape:connector-curvature="0"
         id="path3007"
         d="m 364.6255,514.19476 c 0,4.04841 0,7.77799 0,12.07368 0,1.40409 2.61313,1.59672 3.89529,1.60313 1.28216,0.006 2.88047,-0.028 2.93907,-1.06875 0,0 0,-9.17166 0,-13.6266 0,-0.96337 -1.02951,-1.19203 -2.4047,-1.27765 -1.37519,-0.0856 -4.42966,0.68805 -4.42966,2.29619 z"
         style="fill:#000000;fill-opacity:1;display:inline" />
      <path
         sodipodi:nodetypes="szsszss"
         inkscape:connector-curvature="0"
         id="path3027"
         d="m 354.79991,515.03701 c 0,-0.97274 3.48292,-2.40791 4.76851,-2.38426 1.28559,0.0236 2.27589,0.56863 2.27589,1.40888 0,3.99333 0,7.24668 0,13.00504 0,0.47863 -2.54155,2.04618 -3.90152,1.95076 -1.35997,-0.0954 -3.14288,-0.8949 -3.14288,-2.16751 0,-3.48626 0,-7.32909 0,-11.81291 z"
         style="fill:#000000;fill-opacity:1;display:inline" />
      <path
         sodipodi:nodetypes="zsszssz"
         inkscape:connector-curvature="0"
         id="path3029"
         d="m 349.34739,514.61538 c -1.13556,0.10595 -3.25204,0.89671 -3.25204,2.20673 0,3.48213 0,8.21324 0,11.41247 0,1.21505 2.04489,1.36277 3.13589,1.47952 1.091,0.11675 2.78746,0.0503 2.78746,-0.92915 0,-3.98221 0,-9.24345 0,-13.00813 0,-0.97096 -1.53575,-1.26739 -2.67131,-1.16144 z"
         style="fill:#000000;fill-opacity:1;display:inline" />
      <path
         sodipodi:nodetypes="zssssz"
         inkscape:connector-curvature="0"
         id="path3031"
         d="m 340.39602,517.23128 c -0.90331,0.37903 -2.07341,1.12531 -2.07341,2.11181 0,4.20388 0.0768,7.71749 0.0768,11.7493 0,1.7588 4.91474,-0.16102 4.91474,-1.91982 0,-4.35136 0,-7.5573 0,-11.94129 0,-0.97271 -2.01482,-0.37903 -2.91813,0 z"
         style="fill:#000000;fill-opacity:1;display:inline" />
      <path
         sodipodi:nodetypes="sszsszs"
         inkscape:connector-curvature="0"
         id="path3033"
         d="m 335.54141,521.14777 c 0,2.99791 0,5.89715 0,9.20562 0,1.28934 -1.38863,2.91833 -2.35493,3.06854 -0.9663,0.15021 -1.64131,-0.47531 -1.64131,-1.14178 0,-3.3475 0,-6.5056 0,-10.06196 0,-0.5046 0.38681,-0.78726 1.07042,-1.07042 0.68361,-0.28316 2.92582,-0.97527 2.92582,0 z"
         style="fill:#000000;fill-opacity:1;display:inline" />
      <path
         sodipodi:nodetypes="csszssc"
         inkscape:connector-curvature="0"
         id="path3035"
         d="m 388.86776,513.64768 c -1.24126,0.004 -3.54472,-0.0875 -3.54472,1.14082 0,4.34999 0,8.14344 0,11.89719 0,1.3746 2.16817,2.06747 3.54472,2.03719 1.37653,-0.0303 3.5447,-0.82101 3.5447,-2.20016 0,-3.51802 0,-8.33067 0,-11.73422 0,-1.25419 -2.30344,-1.14498 -3.5447,-1.14082 z"
         style="fill:#000000;fill-opacity:1;display:inline" />
      <path
         sodipodi:nodetypes="zssssz"
         inkscape:connector-curvature="0"
         id="path3037"
         d="m 397.63827,514.62553 c -1.03962,0.0566 -2.44463,0.17124 -2.44463,1.05934 0,4.321 0,7.68898 0,11.89719 0,1.99233 5.8671,3.13315 5.8671,1.14082 0,-3.86848 0,-7.70127 0,-12.11356 0,-1.19422 -2.38285,-2.04037 -3.42247,-1.98379 z"
         style="fill:#000000;fill-opacity:1;display:inline" />
      <path
         sodipodi:nodetypes="sssszs"
         inkscape:connector-curvature="0"
         id="path3039"
         d="m 403.84193,530.18965 c 0,-4.47032 0,-7.30829 0,-12.46759 0,-1.78716 4.88926,0.413 4.88926,2.20016 0,4.20383 0,7.17356 0,11.00083 0,0.93543 -1.62105,0.40702 -2.52612,0.40743 -0.90507,4.1e-4 -2.36314,-0.26613 -2.36314,-1.14083 z"
         style="fill:#000000;fill-opacity:1;display:inline" />
      <path
         sodipodi:nodetypes="sszsszs"
         inkscape:connector-curvature="0"
         id="path3041"
         d="m 411.5124,520.81858 c 0,3.7097 0,7.15841 0,10.75637 0,0.75471 1.18395,1.11595 1.9557,1.14082 0.77175,0.0249 2.11868,-0.26975 2.11868,-1.05934 0,-2.60565 0,-5.89212 0,-8.63768 0,-0.96034 -1.29202,-1.69308 -2.03719,-2.03719 -0.74517,-0.34411 -2.03719,-0.84421 -2.03719,-0.16298 z"
         style="fill:#000000;fill-opacity:1;display:inline" />
      <path
         sodipodi:nodetypes="zsszssz"
         inkscape:connector-curvature="0"
         id="path3043"
         d="m 373.17353,491.59357 c -1.21957,-0.0295 -3.52282,-0.18362 -3.52282,1.04083 0,2.87489 0,5.67331 0,8.48698 0,1.34212 2.66523,1.02121 3.84307,1.20096 1.17784,0.17975 3.1225,0 3.1225,-0.48038 0,-2.75948 0,-5.75059 0,-9.04743 0,-1.2154 -2.22318,-1.17147 -3.44275,-1.20096 z"
         style="fill:#000000;fill-opacity:1;display:inline" />
      <path
         sodipodi:nodetypes="zsszssz"
         inkscape:connector-curvature="0"
         id="path3045"
         d="m 364.56394,492.6344 c -1.20238,-0.10885 -4.56365,0.67537 -4.56365,2.2418 0,2.78265 0,3.79247 0,6.72537 0,1.20688 2.23994,1.10817 3.44275,1.1209 1.20281,0.0127 3.44276,-0.48246 3.44276,-1.68134 0,-2.54758 0,-4.64014 0,-7.3659 0,-0.84816 -1.11948,-0.93198 -2.32186,-1.04083 z"
         style="fill:#000000;fill-opacity:1;display:inline" />
      <path
         sodipodi:nodetypes="zsszssz"
         inkscape:connector-curvature="0"
         id="path3047"
         d="m 354.11288,494.636 c -1.09713,0.0253 -3.1225,0.49542 -3.1225,1.60128 0,3.14354 0,4.94943 0,7.84628 0,1.36109 2.98821,1.00198 4.08327,0.56045 1.09506,-0.44153 2.16173,-1.64176 2.16173,-2.64212 0,-2.38628 0,-3.73252 0,-6.08486 0,-1.08899 -2.02537,-1.30635 -3.1225,-1.28103 z"
         style="fill:#000000;fill-opacity:1;display:inline" />
      <path
         sodipodi:nodetypes="csszssc"
         inkscape:connector-curvature="0"
         id="path3049"
         d="m 340.43785,500.80007 c 0,-0.73919 -2.89445,0.79317 -2.89445,1.87288 0,2.22601 0,3.28689 0,4.93758 0,0.66972 0.98154,1.21849 1.61749,1.19183 0.63595,-0.0267 1.36209,-0.58853 1.36209,-1.19183 0,-2.11464 -0.0849,-2.75547 -0.0851,-6.12941 z"
         style="fill:#000000;fill-opacity:1;display:inline" />
      <path
         sodipodi:nodetypes="ssszss"
         inkscape:connector-curvature="0"
         id="path3051"
         d="m 343.28789,499.60824 c 0,-1.69313 4.93758,-3.75025 4.93758,-1.95801 0,2.70345 0,4.60872 0,6.98072 0,1.0961 -2.14484,1.97798 -3.0647,1.87288 -0.91986,-0.1051 -1.87288,-0.18085 -1.87288,-0.93644 0,-2.26829 0,-3.03743 0,-5.95915 z"
         style="fill:#000000;fill-opacity:1;display:inline" />
      <path
         sodipodi:nodetypes="sszsss"
         inkscape:connector-curvature="0"
         id="path3053"
         d="m 379.38118,493.53866 c 0,2.71342 0,4.34222 0,7.08283 0,1.29171 2.50643,2.06463 3.72149,2.04081 1.21506,-0.0238 3.2413,-0.66184 3.2413,-1.80072 0,-2.62477 0,-3.4377 0,-5.88235 0,-2.32128 -6.96279,-3.78348 -6.96279,-1.44057 z"
         style="fill:#000000;fill-opacity:1;display:inline" />
      <path
         sodipodi:nodetypes="sszsss"
         inkscape:connector-curvature="0"
         id="path3055"
         d="m 389.10888,494.97923 c 0,2.66159 0,4.52775 0,7.68308 0,1.01233 1.83078,1.90855 2.88115,1.92076 1.05037,0.0122 3.12125,-0.47207 3.12125,-1.56062 0,-2.93263 0,-4.73014 0,-7.20288 0,-1.20009 -6.0024,-2.28052 -6.0024,-0.84034 z"
         style="fill:#000000;fill-opacity:1;display:inline" />
      <path
         sodipodi:nodetypes="sszsszs"
         inkscape:connector-curvature="0"
         id="path3057"
         d="m 397.87618,497.73302 c 0,2.46457 0,3.91454 0,6.08778 0,1.19697 1.97264,2.45813 2.94777,2.49921 0.97513,0.0411 1.96163,-0.37752 1.96163,-1.13255 0,-1.88331 0,-3.14876 0,-5.4679 0,-0.93061 -1.07901,-1.61768 -1.96163,-1.98654 -0.88262,-0.36886 -2.94777,-0.98259 -2.94777,0 z"
         style="fill:#000000;fill-opacity:1;display:inline" />
      <path
         sodipodi:nodetypes="zssssz"
         inkscape:connector-curvature="0"
         id="path3059"
         d="m 406.49856,500.69747 c 0.60565,-0.10873 2.00768,0.91636 2.00768,1.67307 0,1.79128 0,3.36352 0,5.07495 0,0.9973 -2.95574,-0.0963 -2.95574,-1.11537 0,-1.51997 0,-3.14902 0,-4.57304 0,-0.47394 0.34241,-0.95088 0.94806,-1.05961 z"
         style="fill:#000000;fill-opacity:1;display:inline" />
      <path
         sodipodi:nodetypes="sszzczzs"
         inkscape:connector-curvature="0"
         id="path3061"
         d="m 373.52451,460.67937 c 0,5.78196 0,11.64167 0,16.97365 0,0.93269 0.61768,1.41485 1.97852,1.97853 1.36084,0.56368 4.8683,0.77242 6.0397,0 1.1714,-0.77242 0.9372,-2.18679 0.9372,-2.18679 0,0 -1.59187,-10.18367 -2.91572,-12.91247 -1.32385,-2.7288 -1.93901,-3.28817 -3.12398,-3.85292 -1.18497,-0.56475 -2.91572,-0.97191 -2.91572,0 z"
         style="fill:#000000;fill-opacity:1;display:inline" />
      <path
         sodipodi:nodetypes="sszzzzss"
         inkscape:connector-curvature="0"
         id="path3063"
         d="m 372.50635,460.57737 c 0,-0.73302 -3.56726,0.0629 -3.84836,0.54977 -1.40824,2.43915 -1.44237,4.08453 -2.12053,6.51866 -0.67816,2.43413 -1.89173,6.03202 -1.88492,8.08943 0.007,2.05741 -0.23369,2.98881 0.94246,3.91608 1.17615,0.92727 3.75475,0.50798 4.9479,0 1.19315,-0.50798 1.96345,-1.09772 1.96345,-2.04199 0,-5.42353 0,-11.0681 0,-17.03195 z"
         style="fill:#000000;fill-opacity:1;display:inline" />
      <path
         sodipodi:nodetypes="czzszzzzzsc"
         inkscape:connector-curvature="0"
         id="path3068"
         d="m 380.50059,461.8693 c 0,0 1.46782,5.69546 1.97081,7.8832 0.50299,2.18774 0.72295,3.21691 1.08733,5.02895 0.36438,1.81204 0.36369,2.12436 1.08734,4.82506 0.428,1.59732 3.87737,1.55517 4.96099,1.01938 1.08362,-0.53579 0.85548,-0.54908 0.95142,-1.9708 0.0959,-1.42172 -1.14612,-4.02521 -1.9708,-6.04832 -0.82468,-2.02311 -2.04591,-4.23773 -2.99019,-6.04832 -0.94428,-1.81059 -1.51913,-3.93052 -2.65038,-4.62119 -1.13125,-0.69067 -2.44652,-1.11251 -2.44652,-0.068 z"
         style="fill:#000000;fill-opacity:1;display:inline" />
      <path
         sodipodi:nodetypes="zzzzczzzz"
         inkscape:connector-curvature="0"
         id="path3070"
         d="m 388.56003,462.73151 c -0.61508,0.58212 2.95212,3.80307 4.2781,5.83994 1.32597,2.03687 2.30021,3.86513 3.66694,6.3832 1.36673,2.51807 2.81559,7.30336 4.14228,8.75991 1.32669,1.45655 1.83348,1.08651 1.83348,1.08651 0,0 0.23434,-1.0243 -0.40744,-3.1237 -0.64178,-2.0994 -3.04181,-6.45998 -4.48182,-8.96363 -1.44001,-2.50365 -2.46006,-4.4428 -4.00647,-6.11157 -1.54641,-1.66877 -4.40999,-4.45278 -5.02507,-3.87066 z"
         style="fill:#000000;fill-opacity:1;display:inline" />
      <path
         sodipodi:nodetypes="zzzzzzzz"
         inkscape:connector-curvature="0"
         id="path3072"
         d="m 386.67751,463.54474 c -0.74452,0.42985 1.56968,3.9019 2.39163,6.12255 0.82195,2.22065 1.6425,4.02218 2.58295,6.02689 0.94045,2.00471 1.63043,5.26566 2.86995,6.02689 1.23952,0.76123 2.12024,1.57557 3.06127,0.19133 0.94103,-1.38424 -1.96081,-4.2411 -2.96561,-6.31388 -1.0048,-2.07278 -1.74268,-4.0923 -3.06128,-6.12256 -1.3186,-2.03026 -4.13439,-6.36107 -4.87891,-5.93122 z"
         style="fill:#000000;fill-opacity:1;display:inline" />
      <path
         sodipodi:nodetypes="szzzazzzzs"
         inkscape:connector-curvature="0"
         id="path3074"
         d="m 366.75627,462.05928 c 0.33692,0.58357 -1.535,4.83376 -2.24014,7.68642 -0.70514,2.85266 -1.62336,9.13452 -1.97133,9.66213 -0.34797,0.52761 -0.66445,0.78159 -1.25448,0.98566 -0.59003,0.20407 -1.49846,0.29776 -2.15054,0 -0.53931,-0.24626 -0.91753,-0.42101 -1.16487,-1.34408 -0.24734,-0.92307 1.2662,-6.91906 2.06093,-9.21411 0.79473,-2.29505 1.64085,-3.92367 2.41936,-5.28674 0.77851,-1.36307 1.1974,-2.03856 2.06093,-2.48928 0.86353,-0.45072 1.86678,-0.64667 2.24014,0 z"
         style="fill:#000000;fill-opacity:1;display:inline" />
      <path
         sodipodi:nodetypes="zzzzzzzzz"
         inkscape:connector-curvature="0"
         id="path3076"
         d="m 357.09484,463.67407 c -0.75995,-0.65079 -3.91206,3.12933 -5.53454,5.14479 -1.62248,2.01546 -3.0659,4.86539 -4.05347,6.85971 -0.98757,1.99432 -1.58197,3.63975 -2.02673,4.98888 -0.44476,1.34913 -1.39782,2.2657 -0.77951,3.0401 0.61831,0.7744 1.49316,0.57579 2.18263,-0.078 0.68947,-0.65379 0.45183,-1.37031 0.85747,-2.88419 0.40564,-1.51388 0.45142,-3.05113 1.87083,-6.00225 1.41941,-2.95112 8.24327,-10.41825 7.48332,-11.06904 z"
         style="fill:#000000;fill-opacity:1;display:inline" />
      <path
         sodipodi:nodetypes="zcszszsz"
         inkscape:connector-curvature="0"
         id="path3078"
         d="m 359.06475,463.5763 c -2.01614,1.00963 -5.44016,9.17738 -5.44016,9.17738 0,0 -1.56364,2.98239 -2.86496,7.839 -0.18107,0.67576 0.95399,0.98926 1.81635,1.05158 0.86236,0.0623 2.60144,-0.15264 2.86793,-1.14718 0.84138,-3.14008 0.72768,-4.92872 1.90899,-7.7434 1.18132,-2.81468 4.00888,-8.73505 4.10179,-9.08178 0.0929,-0.34673 -0.3738,-1.10523 -2.38994,-0.0956 z"
         style="fill:#000000;fill-opacity:1;display:inline" />
      <path
         sodipodi:nodetypes="ccccccccccccccccczcccc"
         inkscape:connector-curvature="0"
         id="path3005"
         d="m 367.5813,443.62235 -1.27664,0.3693 0,-3.41809 6.05306,-5.0813 0,-10.77235 1.21952,0 0,-5.28456 2.03252,0 0,5.28456 1.04981,0.28129 0,10.89757 4.03149,3.65853 1.82927,0 0,2.23578 -1.65957,0.95815 0,11.84672 c -0.13286,0 5.47425,4.51792 6.74086,7.31707 -1.85346,-0.0432 -8.33839,-2.62427 -12.39837,-2.43902 -4.05998,0.18525 -13.61788,2.23578 -13.61788,2.23578 l -0.20326,-1.82927 6.19919,-5.48781 z"
         style="fill:#000000;fill-opacity:1;display:inline" />
      <path
         sodipodi:nodetypes="cccsccccscscscsccssssccccs"
         inkscape:connector-curvature="0"
         d="m 320.51282,583.77244 0,18.80342 13.67521,0 c 0,0 5.04692,-1.53075 5.04692,-8.74151 0,-8.86799 -5.19132,-9.94549 -5.19132,-9.94549 z m -0.42529,-23.56414 0,17.03002 c 0,0 7.32873,0.40202 9.54933,-0.73084 3.13463,-1.59917 3.91014,-4.42515 3.91014,-8.18159 -0.16057,-3.78511 -2.61481,-7.7847 -5.1282,-7.99579 -1.41657,-0.11897 -8.33127,-0.1218 -8.33127,-0.1218 z m -16.99911,-5.06491 34.82907,0 c 0,0 8.70534,1.07022 8.97435,8.33334 l 0.21368,5.76922 c -0.10421,5.31508 -2.70706,7.29941 -5.02137,9.82906 3.543,0.85059 6.52708,2.53275 9.03148,5.64168 1.02129,1.26782 1.74701,3.21823 2.42193,6.7401 0.57785,3.0153 0.21585,5.16037 -0.64103,8.13104 -1.37128,4.75403 -3.07145,6.20405 -6.31534,8.02269 -3.94893,2.21392 -7.56277,2.65608 -11.13048,2.65422 l -30.86656,0 c 0,0 2.08908,-1.79666 2.6879,-4.65558 l 0,-45.76491 c -2.1983,-1.03111 -6.40819,-4.70086 -4.18363,-4.70086 z"
         style="fill:#000000;fill-opacity:1;display:inline"
         id="path3050" />
      <path
         sodipodi:nodetypes="cccccccaaacaaacccssasssccs"
         inkscape:connector-curvature="0"
         id="path3851"
         d="m 376.96875,563.625 c 0,0 -19.31606,-0.73868 -8.46875,18.28125 -9.21278,6.38951 -8,14.5625 -8,14.5625 -1.18875,14.41354 16.03125,15.03125 16.03125,15.03125 0,0 5.48861,-1.20736 8.90625,-4.625 0,0 1.63907,-2.08031 3.125,0 0,0 2.66845,2.83485 5.9375,3.875 0,0 3.12306,-0.83277 3.875,-2.09375 0.85895,-1.44042 0.98491,-3.67384 0,-5.03125 -1.22263,-1.68504 -4.71487,-0.25246 -5.9375,-1.9375 -0.55669,-0.76723 0,-2.84375 0,-2.84375 0,0 3.02458,-1.78051 3.21015,-3.30507 0.13056,-1.07263 -1.2531,-1.78834 -1.63476,-2.79923 -0.27515,-0.72877 0.2832,-2.02807 -0.44922,-2.29336 -1.3003,-0.47097 -3.21992,2.61641 -3.21992,2.61641 0,0 0.15482,-5.79924 -5.9375,-11 0,0 12.77118,-17.10016 -7.4375,-18.4375 z m 0.32852,6.51719 c 2.63624,0.082 8.04172,0.37689 4.34609,6.61211 -1.1864,2.00167 -6.12532,1.24238 -7.26523,-0.91602 -0.99636,-1.88657 -1.14251,-5.82245 2.91914,-5.69609 z M 376.25,587.25 c 1.14648,-0.27804 5.32245,2.72904 6.1875,6 1.40362,5.30743 1.14115,6.20094 -3.09375,8.28125 0,0 -2.22392,1.78312 -4.75,0 -8.02403,-7.42966 -2.16988,-13.35336 1.65625,-14.28125 z"
         style="fill:#000000;fill-opacity:1;display:inline" />
      <path
         sodipodi:nodetypes="ccccccccccccscccccc"
         inkscape:connector-curvature="0"
         id="path3838"
         d="m 427.09375,553.125 c -1.5578,-0.0512 -3.48078,0.064 -5.65625,0.5625 -18.53911,5.27833 -21.70783,25.30348 -20.78125,22 -0.84601,3.38406 -0.84601,8.41037 0,10.875 3.74664,17.28286 18.84375,22 18.84375,22 6.88897,1.57117 7.02142,1.57117 14.03125,0 0,0 15.82227,-5.43627 18.84375,-20.90625 0.36258,-1.93375 1.08773,-7.4947 0,-12.8125 0,0 -3.11698,-16.34899 -21.125,-21.0625 0,0 -1.55992,-0.57089 -4.15625,-0.65625 z m -0.53125,8.53125 c 11.73165,1.83307 11.71875,13.9375 11.71875,13.9375 l 0,11.90625 c 0,10.08189 -7.0625,12.21875 -7.0625,12.21875 -4.58268,1.64976 -8.875,0 -8.875,0 -5.49921,-1.64976 -6.96456,-10.19169 -6.78125,-10.375 l 0,-16.6875 c 0.36661,-8.24882 8.25,-10.8125 8.25,-10.8125 z"
         style="fill:#000000;fill-opacity:1" />
    </g>
  </g>
</svg>
