<?xml version="1.0" encoding="UTF-8" standalone="no"?>
<!-- Created with Inkscape (http://www.inkscape.org/) -->

<svg
   xmlns:dc="http://purl.org/dc/elements/1.1/"
   xmlns:cc="http://creativecommons.org/ns#"
   xmlns:rdf="http://www.w3.org/1999/02/22-rdf-syntax-ns#"
   xmlns:svg="http://www.w3.org/2000/svg"
   xmlns="http://www.w3.org/2000/svg"
   xmlns:sodipodi="http://sodipodi.sourceforge.net/DTD/sodipodi-0.dtd"
   xmlns:inkscape="http://www.inkscape.org/namespaces/inkscape"
   width="600"
   height="600"
   id="svg4743"
   version="1.1"
   inkscape:version="0.48.4 r9939"
   sodipodi:docname="gn-modern-goat.svg">
  <defs
     id="defs3" />
  <sodipodi:namedview
     inkscape:document-units="mm"
     id="base"
     pagecolor="#ffffff"
     bordercolor="#666666"
     borderopacity="1.0"
     inkscape:pageopacity="0.0"
     inkscape:pageshadow="2"
     inkscape:zoom="0.74"
     inkscape:cx="164.42327"
     inkscape:cy="294.68477"
     inkscape:current-layer="layer8"
     showgrid="false"
     units="px"
     inkscape:window-width="1280"
     inkscape:window-height="748"
     inkscape:window-x="-8"
     inkscape:window-y="-8"
     inkscape:window-maximized="1" />
  <metadata
     id="metadata4">
    <rdf:RDF>
      <cc:Work
         rdf:about="">
        <dc:format>image/svg+xml</dc:format>
        <dc:type
           rdf:resource="http://purl.org/dc/dcmitype/StillImage" />
        <dc:title></dc:title>
      </cc:Work>
    </rdf:RDF>
  </metadata>
  <g
     inkscape:groupmode="layer"
     id="layer5"
     inkscape:label="Block"
     style="display:inline" />
  <g
     inkscape:groupmode="layer"
     id="layer7"
     inkscape:label="Circle"
     style="display:inline" />
  <g
     inkscape:groupmode="layer"
     id="layer8"
     inkscape:label="Goat"
     style="display:inline">
    <rect
       style="fill:#003597;fill-opacity:1;display:inline"
       id="rect4761"
       width="600"
       height="600"
       x="3.0114976e-005"
       y="2.1349365e-006" />
    <g
       id="g5041"
       transform="matrix(4.3240784,0,0,3.9843096,-1540.571,-902.07866)">
      <path
         inkscape:connector-curvature="0"
         id="path4881"
         d="m 425.65625,237.6875 c -35.35635,0 -64.03125,28.64365 -64.03125,64 0,35.35635 28.6749,64.03125 64.03125,64.03125 35.35635,0 64.03125,-28.6749 64.03125,-64.03125 0,-35.35635 -28.6749,-64 -64.03125,-64 z m 0,11.75 c 28.86808,0 52.28125,23.38192 52.28125,52.25 0,28.86808 -23.41317,52.28125 -52.28125,52.28125 -28.86808,0 -52.28125,-23.41317 -52.28125,-52.28125 0,-28.86808 23.41317,-52.25 52.28125,-52.25 z"
         style="fill:#ffffff;fill-opacity:1;display:inline" />
      <path
         inkscape:connector-curvature="0"
         id="path4903"
         d="m 405.78125,256.625 c -0.22373,-0.0112 -0.46054,-0.012 -0.6875,0.0312 -1.81565,0.34675 -5.25959,1.36126 -5.46875,4.1875 -0.1658,2.24038 0,6.71875 0,6.71875 l -7.875,9.375 c 0,0 -1.17015,2.97809 -0.65625,4.21875 0.5139,1.24066 3.4375,1.53125 3.4375,1.53125 l 0,2.5625 c 0,0 -0.24837,2.26446 0.90625,2.71875 1.15462,0.45429 4.03125,-2.1875 4.03125,-2.1875 l 0,-3.8125 c 0,0 0.78819,0.17083 1.25,0 0.46181,-0.17083 0.0793,-1.18195 1.28125,-1.09375 1.20196,0.0882 3.65625,4.1875 3.65625,4.1875 0,0 -1.54806,12.42317 -1.28125,14.40625 0.26681,1.98308 6.5625,14.1875 6.5625,14.1875 l 2.1875,8.1875 3.4375,4.9375 0,6.1875 -0.71875,0 -0.71875,1.28125 -4.1875,-1.09375 -5.28125,16.75 c 0,0 2.59466,9.44114 23.375,9.3125 20.78033,-0.12864 24.34375,-10.03125 24.34375,-10.03125 l -0.1875,-5.28125 1.625,0 -0.15625,-2.1875 -1.09375,-3.09375 0,-5.125 -0.90625,-4.1875 -2.1875,-2.34375 0,-4.375 1.09375,-1.84375 0,-3.25 0.90625,-4.5625 -0.90625,-5.09375 c 0,0 2.94803,-1.90871 3.09375,-2.9375 0.14572,-1.02879 -5.125,-6.375 -5.125,-6.375 L 443,293.4375 c 0,0 -2.51509,-2.17153 -3.65625,-2.53125 -1.14116,-0.35972 -2.71875,0 -2.71875,0 0,0 -3.41545,-5.91847 -5.65625,-9.65625 -2.2408,-3.73778 -5.21023,-9.78753 -7.84375,-12.75 -2.63352,-2.96247 -4.14115,-4.50881 -6.90625,-5.46875 -2.7651,-0.95994 -8.75,0 -8.75,0 0,0 0.3282,-2.09705 0.84375,-2.78125 0.51555,-0.6842 2.21875,-1.4375 2.21875,-1.4375 l 2.21875,0.21875 1.625,-0.1875 c 0,0 -2.08513,-1.64463 -3.09375,-1.84375 -1.00862,-0.19912 -2.53125,0.375 -2.53125,0.375 0,0 -1.40264,-0.67187 -2.96875,-0.75 z m 1.75,1.65625 c 0,0 -1.45037,0.94488 -2.25,1.96875 -0.79963,1.02387 -2.1875,4.28125 -2.1875,4.28125 0,0 -0.79272,-3.44661 -0.5625,-4.40625 0.23022,-0.95964 0.038,-0.71361 0.84375,-1.21875 0.80576,-0.50514 4.15625,-0.625 4.15625,-0.625 z m 25.75,61.6875 c 0,0 1.63434,7.20643 2.375,8 0.74066,0.79357 3.84375,2.0625 3.84375,2.0625 l 0,1.46875 c 0,0 0.55327,2.71775 0.875,4 0.32173,1.28225 1.2393,2.40595 1.03125,3.6875 -0.20805,1.28155 -2.21875,3.28125 -2.21875,3.28125 l -18.34375,-6.21875 0.46875,-8 1.75,-1.625 c 0,0 0.93922,-3.37864 2.6875,-4.71875 1.74828,-1.34011 7.53125,-1.9375 7.53125,-1.9375 z m 11.90625,12.28125 2.875,2.65625 1.34375,3.40625 0,4.875 -0.96875,0 0,1.8125 -1.78125,0 -2.0625,-1.875 0.9375,-2.125 0,-4.09375 -1.09375,-1.625 0.75,-3.03125 z"
         style="fill:#ffffff;fill-opacity:1" />
    </g>
  </g>
</svg>
