<?xml version="1.0" encoding="UTF-8" standalone="no"?>
<!-- Created with Inkscape (http://www.inkscape.org/) -->

<svg
   xmlns:dc="http://purl.org/dc/elements/1.1/"
   xmlns:cc="http://creativecommons.org/ns#"
   xmlns:rdf="http://www.w3.org/1999/02/22-rdf-syntax-ns#"
   xmlns:svg="http://www.w3.org/2000/svg"
   xmlns="http://www.w3.org/2000/svg"
   xmlns:sodipodi="http://sodipodi.sourceforge.net/DTD/sodipodi-0.dtd"
   xmlns:inkscape="http://www.inkscape.org/namespaces/inkscape"
   width="600"
   height="300"
   id="svg4743"
   version="1.1"
   inkscape:version="0.48.4 r9939"
   sodipodi:docname="gn-modern-block.svg">
  <defs
     id="defs3" />
  <sodipodi:namedview
     inkscape:document-units="mm"
     id="base"
     pagecolor="#ffffff"
     bordercolor="#666666"
     borderopacity="1.0"
     inkscape:pageopacity="0.0"
     inkscape:pageshadow="2"
     inkscape:zoom="0.48750832"
     inkscape:cx="205.17968"
     inkscape:cy="294.68477"
     inkscape:current-layer="layer8"
     showgrid="false"
     units="px"
     inkscape:window-width="1280"
     inkscape:window-height="748"
     inkscape:window-x="-8"
     inkscape:window-y="-8"
     inkscape:window-maximized="1" />
  <metadata
     id="metadata4">
    <rdf:RDF>
      <cc:Work
         rdf:about="">
        <dc:format>image/svg+xml</dc:format>
        <dc:type
           rdf:resource="http://purl.org/dc/dcmitype/StillImage" />
        <dc:title />
      </cc:Work>
    </rdf:RDF>
  </metadata>
  <g
     inkscape:groupmode="layer"
     id="layer5"
     inkscape:label="Block"
     style="display:inline"
     transform="translate(0,-300)" />
  <g
     inkscape:groupmode="layer"
     id="layer6"
     inkscape:label="Great Northern"
     style="display:inline"
     transform="translate(0,-300)" />
  <g
     inkscape:groupmode="layer"
     id="layer7"
     inkscape:label="Circle"
     style="display:inline"
     transform="translate(0,-300)" />
  <g
     inkscape:groupmode="layer"
     id="layer8"
     inkscape:label="Goat"
     style="display:inline"
     transform="translate(0,-300)">
    <g
       id="g4979"
       transform="matrix(1.506289,0,0,1.506289,-151.88671,-1.8867)">
      <rect
         y="230.0002"
         x="103.5006"
         height="139.9996"
         width="392.99881"
         id="rect4761"
         style="fill:#003597;fill-opacity:1;display:inline" />
      <path
         sodipodi:nodetypes="ccccccccccc"
         inkscape:connector-curvature="0"
         id="path4764"
         d="m 112.24642,314.0451 0.16181,30.89237 7.44051,0 0,-21.43063 10.77588,21.43063 7.88478,0 0,-30.89237 -7.0963,0 0,18.66066 -9.46175,-18.66066 z"
         style="fill:#ffffff;fill-opacity:1;display:inline" />
      <path
         sodipodi:nodetypes="ccccccccccc"
         inkscape:connector-curvature="0"
         id="path4764-5"
         d="m 312.41318,315.25978 0.16181,30.89237 7.44051,0 0,-21.43063 10.77588,21.43063 7.88478,0 0,-30.89237 -7.0963,0 0,18.66066 -9.46175,-18.66066 z"
         style="fill:#ffffff;fill-opacity:1;display:inline" />
      <path
         sodipodi:nodetypes="ccccccccc"
         inkscape:connector-curvature="0"
         id="path4784"
         d="m 209.55497,321.13875 0,24.35481 6.02095,0 0,-24.35481 8.90052,0 0,-5.17016 -23.03665,0 0,5.17016 z"
         style="fill:#ffffff;fill-opacity:1;display:inline" />
      <path
         sodipodi:nodetypes="ccccccccc"
         inkscape:connector-curvature="0"
         id="path4784-2"
         d="m 230.68137,271.187 0,23.72227 6.02095,0 0,-23.72227 8.90052,0 0,-5.17016 -23.03665,0 0,5.17016 z"
         style="fill:#ffffff;fill-opacity:1;display:inline" />
      <path
         sodipodi:nodetypes="ccccccccccccc"
         inkscape:connector-curvature="0"
         id="path4804"
         d="m 257.55911,315.96496 0,29.85427 21.00074,0 0,-5.77842 -14.1005,0 0,-6.00021 13.05046,0 0,-6.15022 -13.05046,0 0,-5.85021 14.1005,0 0,-6.07521 z"
         style="fill:#ffffff;fill-opacity:1;display:inline" />
      <path
         sodipodi:nodetypes="ccccccccccccc"
         inkscape:connector-curvature="0"
         id="path4804-7"
         d="m 174.45617,264.92565 0,29.98362 21.00074,0 0,-5.90777 -14.1005,0 0,-6.00021 13.05046,0 0,-6.15022 -13.05046,0 0,-5.85021 14.1005,0 0,-6.07521 z"
         style="fill:#ffffff;fill-opacity:1;display:inline" />
      <path
         sodipodi:nodetypes="ccccccsccscscccsccc"
         inkscape:connector-curvature="0"
         id="path4835"
         d="m 163.34375,264.875 -18.75,0.15625 0,29.87802 6.90625,0 0,-11.03427 7.53125,0 c 0.30517,0.40486 2.83494,3.80893 3.5625,5.625 0.77169,1.92622 1.0625,5.40927 1.0625,5.40927 l 6.90625,0 c 0,0 -0.64973,-6.20173 -1.5,-8.40927 -0.68062,-1.76708 -2.89195,-4.32922 -3.46875,-5.0625 1.92274,-1.57955 4.8125,-3.67559 4.8125,-7.84375 0,-7.56162 -7.0625,-8.71875 -7.0625,-8.71875 z m -12,6.15625 8.5625,0 c 0,0 2.79028,0.7627 2.6875,3.46875 -0.10278,2.70605 -3.125,3.4375 -3.125,3.4375 l -8.125,0 z"
         style="fill:#ffffff;fill-opacity:1;display:inline" />
      <path
         sodipodi:nodetypes="ccccccsccscscccsccc"
         id="path4835-6"
         d="m 193.42227,315.44047 -18.75,0.15625 0,29.57116 6.90625,0 0,-10.72741 7.53125,0 c 0.30517,0.40486 2.83494,3.80893 3.5625,5.625 0.77169,1.92622 1.0625,5.10241 1.0625,5.10241 l 6.90625,0 c 0,0 -0.64973,-5.89487 -1.5,-8.10241 -0.68062,-1.76708 -2.89195,-4.32922 -3.46875,-5.0625 1.92274,-1.57955 4.8125,-3.67559 4.8125,-7.84375 0,-7.56162 -7.0625,-8.71875 -7.0625,-8.71875 z m -12,6.15625 8.5625,0 c 0,0 2.79028,0.7627 2.6875,3.46875 -0.10278,2.70605 -3.125,3.4375 -3.125,3.4375 l -8.125,0 z"
         style="fill:#ffffff;fill-opacity:1;display:inline"
         inkscape:connector-curvature="0" />
      <path
         sodipodi:nodetypes="ccccccsccscscccsccc"
         id="path4835-1"
         d="m 301.57608,315.89048 -18.75,0.15625 0,29.79625 6.90625,0 0,-10.9525 7.53125,0 c 0.30517,0.40486 2.83494,3.80893 3.5625,5.625 0.77169,1.92622 1.0625,5.3275 1.0625,5.3275 l 6.90625,0 c 0,0 -0.64973,-6.11996 -1.5,-8.3275 -0.68062,-1.76708 -2.89195,-4.32922 -3.46875,-5.0625 1.92274,-1.57955 4.8125,-3.67559 4.8125,-7.84375 0,-7.56162 -7.0625,-8.71875 -7.0625,-8.71875 z m -12,6.15625 8.5625,0 c 0,0 2.79028,0.7627 2.6875,3.46875 -0.10278,2.70605 -3.125,3.4375 -3.125,3.4375 l -8.125,0 z"
         style="fill:#ffffff;fill-opacity:1;display:inline"
         inkscape:connector-curvature="0" />
      <path
         sodipodi:nodetypes="ccccccccccccc"
         inkscape:connector-curvature="0"
         id="path4866"
         d="m 226.41414,316.03951 0,29.45405 7.05362,0 0,-11.29622 10.96454,0 0,11.29622 6.98378,0 0,-29.45405 -6.98378,0 0,11.03437 -10.96454,0 0,-11.03437 z"
         style="fill:#ffffff;fill-opacity:1;display:inline" />
      <path
         sodipodi:nodetypes="ccccccccccccc"
         inkscape:connector-curvature="0"
         id="path4868"
         d="m 216.3125,265.04687 -10.8125,0 -7.96875,29.8624 6,0 1.96875,-5.81552 10.8125,0 2.28125,5.81552 6.875,0 z M 211.20312,271 l 3.73438,12 -7.46875,0 z"
         style="fill:#ffffff;fill-opacity:1;display:inline" />
      <path
         sodipodi:nodetypes="zssssszcsssssc"
         inkscape:connector-curvature="0"
         id="path4873"
         d="m 156.53125,314.3125 c -7.59844,0.23234 -14.92368,3.85448 -14.92368,12.25589 0,3.61485 0,4.01037 0,7.68312 0,3.5877 3.57819,11.84224 14.92368,11.84224 11.3455,0 14.99471,-8.80446 14.99471,-11.84224 l 0,-7.68312 c 0,-7.76924 -7.39627,-12.48823 -14.99471,-12.25589 z m 0.0937,6.53125 c 1.80079,-0.01 6.84375,0.92638 6.84375,4.375 l 0,8.15625 c 0,3.17425 -0.47116,6.42142 -6.84375,6.625 -6.37259,0.20358 -6.84375,-3.44767 -6.84375,-6.625 l 0,-7.96875 c 0,-4.059 5.04296,-4.5525 6.84375,-4.5625 z"
         style="fill:#ffffff;fill-opacity:1;display:inline" />
      <path
         sodipodi:nodetypes="cssszcccccczssscc"
         inkscape:connector-curvature="0"
         id="path4878"
         d="m 139.44323,264.9951 c 0,0 -12.78295,0 -19.01886,0 -1.177,0 -7.84635,4.4519 -7.84635,9.3815 0,4.25599 0,7.88855 0,11.9401 0,3.81939 6.37422,9.72264 14.66926,9.72264 8.29504,0 12.19595,-4.09374 12.19595,-4.09374 l 0,-15.01041 -12.87824,0 0,5.79948 5.97004,0 0,5.11718 c 0,0 -2.66693,1.19401 -5.11718,1.19401 -2.45025,0 -7.84635,-2.54714 -7.84635,-5.79947 0,-2.30579 0,-4.756 0,-7.16406 0,-0.8926 3.20115,-5.11718 4.4349,-5.11718 5.38983,0 15.43683,0 15.43683,0 z"
         style="fill:#ffffff;fill-opacity:1;display:inline" />
      <path
         inkscape:connector-curvature="0"
         id="path4881"
         d="m 425.65625,237.6875 c -35.35635,0 -64.03125,28.64365 -64.03125,64 0,35.35635 28.6749,64.03125 64.03125,64.03125 35.35635,0 64.03125,-28.6749 64.03125,-64.03125 0,-35.35635 -28.6749,-64 -64.03125,-64 z m 0,11.75 c 28.86808,0 52.28125,23.38192 52.28125,52.25 0,28.86808 -23.41317,52.28125 -52.28125,52.28125 -28.86808,0 -52.28125,-23.41317 -52.28125,-52.28125 0,-28.86808 23.41317,-52.25 52.28125,-52.25 z"
         style="fill:#ffffff;fill-opacity:1;display:inline" />
      <path
         inkscape:connector-curvature="0"
         id="path4903"
         d="m 405.78125,256.625 c -0.22373,-0.0112 -0.46054,-0.012 -0.6875,0.0312 -1.81565,0.34675 -5.25959,1.36126 -5.46875,4.1875 -0.1658,2.24038 0,6.71875 0,6.71875 l -7.875,9.375 c 0,0 -1.17015,2.97809 -0.65625,4.21875 0.5139,1.24066 3.4375,1.53125 3.4375,1.53125 l 0,2.5625 c 0,0 -0.24837,2.26446 0.90625,2.71875 1.15462,0.45429 4.03125,-2.1875 4.03125,-2.1875 l 0,-3.8125 c 0,0 0.78819,0.17083 1.25,0 0.46181,-0.17083 0.0793,-1.18195 1.28125,-1.09375 1.20196,0.0882 3.65625,4.1875 3.65625,4.1875 0,0 -1.54806,12.42317 -1.28125,14.40625 0.26681,1.98308 6.5625,14.1875 6.5625,14.1875 l 2.1875,8.1875 3.4375,4.9375 0,6.1875 -0.71875,0 -0.71875,1.28125 -4.1875,-1.09375 -5.28125,16.75 c 0,0 2.59466,9.44114 23.375,9.3125 20.78033,-0.12864 24.34375,-10.03125 24.34375,-10.03125 l -0.1875,-5.28125 1.625,0 -0.15625,-2.1875 -1.09375,-3.09375 0,-5.125 -0.90625,-4.1875 -2.1875,-2.34375 0,-4.375 1.09375,-1.84375 0,-3.25 0.90625,-4.5625 -0.90625,-5.09375 c 0,0 2.94803,-1.90871 3.09375,-2.9375 0.14572,-1.02879 -5.125,-6.375 -5.125,-6.375 L 443,293.4375 c 0,0 -2.51509,-2.17153 -3.65625,-2.53125 -1.14116,-0.35972 -2.71875,0 -2.71875,0 0,0 -3.41545,-5.91847 -5.65625,-9.65625 -2.2408,-3.73778 -5.21023,-9.78753 -7.84375,-12.75 -2.63352,-2.96247 -4.14115,-4.50881 -6.90625,-5.46875 -2.7651,-0.95994 -8.75,0 -8.75,0 0,0 0.3282,-2.09705 0.84375,-2.78125 0.51555,-0.6842 2.21875,-1.4375 2.21875,-1.4375 l 2.21875,0.21875 1.625,-0.1875 c 0,0 -2.08513,-1.64463 -3.09375,-1.84375 -1.00862,-0.19912 -2.53125,0.375 -2.53125,0.375 0,0 -1.40264,-0.67187 -2.96875,-0.75 z m 1.75,1.65625 c 0,0 -1.45037,0.94488 -2.25,1.96875 -0.79963,1.02387 -2.1875,4.28125 -2.1875,4.28125 0,0 -0.79272,-3.44661 -0.5625,-4.40625 0.23022,-0.95964 0.038,-0.71361 0.84375,-1.21875 0.80576,-0.50514 4.15625,-0.625 4.15625,-0.625 z m 25.75,61.6875 c 0,0 1.63434,7.20643 2.375,8 0.74066,0.79357 3.84375,2.0625 3.84375,2.0625 l 0,1.46875 c 0,0 0.55327,2.71775 0.875,4 0.32173,1.28225 1.2393,2.40595 1.03125,3.6875 -0.20805,1.28155 -2.21875,3.28125 -2.21875,3.28125 l -18.34375,-6.21875 0.46875,-8 1.75,-1.625 c 0,0 0.93922,-3.37864 2.6875,-4.71875 1.74828,-1.34011 7.53125,-1.9375 7.53125,-1.9375 z m 11.90625,12.28125 2.875,2.65625 1.34375,3.40625 0,4.875 -0.96875,0 0,1.8125 -1.78125,0 -2.0625,-1.875 0.9375,-2.125 0,-4.09375 -1.09375,-1.625 0.75,-3.03125 z"
         style="fill:#ffffff;fill-opacity:1" />
    </g>
  </g>
</svg>
