<?xml version="1.0" encoding="UTF-8" standalone="no"?>
<!-- Created with Inkscape (http://www.inkscape.org/) -->

<svg
   xmlns:dc="http://purl.org/dc/elements/1.1/"
   xmlns:cc="http://creativecommons.org/ns#"
   xmlns:rdf="http://www.w3.org/1999/02/22-rdf-syntax-ns#"
   xmlns:svg="http://www.w3.org/2000/svg"
   xmlns="http://www.w3.org/2000/svg"
   xmlns:sodipodi="http://sodipodi.sourceforge.net/DTD/sodipodi-0.dtd"
   xmlns:inkscape="http://www.inkscape.org/namespaces/inkscape"
   width="600"
   height="600"
   id="svg3003"
   version="1.1"
   inkscape:version="0.48.4 r9939"
   sodipodi:docname="n&amp;w-white.svg">
  <defs
     id="defs3005" />
  <sodipodi:namedview
     id="base"
     pagecolor="#ffffff"
     bordercolor="#666666"
     borderopacity="1.0"
     inkscape:pageopacity="0.0"
     inkscape:pageshadow="2"
     inkscape:zoom="0.87705101"
     inkscape:cx="305.18656"
     inkscape:cy="289.84342"
     inkscape:document-units="px"
     inkscape:current-layer="layer1"
     showgrid="false"
     inkscape:window-width="1280"
     inkscape:window-height="748"
     inkscape:window-x="-8"
     inkscape:window-y="-8"
     inkscape:window-maximized="1" />
  <metadata
     id="metadata3008">
    <rdf:RDF>
      <cc:Work
         rdf:about="">
        <dc:format>image/svg+xml</dc:format>
        <dc:type
           rdf:resource="http://purl.org/dc/dcmitype/StillImage" />
        <dc:title></dc:title>
      </cc:Work>
    </rdf:RDF>
  </metadata>
  <g
     inkscape:groupmode="layer"
     id="layer1"
     inkscape:label="White Circle">
    <path
       sodipodi:type="arc"
       style="fill:#ffffff;fill-opacity:1"
       id="path3035"
       sodipodi:cx="276.3299"
       sodipodi:cy="345.99979"
       sodipodi:rx="317.26764"
       sodipodi:ry="317.26764"
       d="m 593.59753,345.99979 a 317.26764,317.26764 0 1 1 -634.535274,0 317.26764,317.26764 0 1 1 634.535274,0 z"
       transform="matrix(0.90656218,0,0,0.90656218,49.489768,-13.670321)" />
  </g>
  <g
     inkscape:groupmode="layer"
     id="layer2"
     inkscape:label="Circle"
     style="display:inline"
     transform="translate(0,-452.36218)" />
  <g
     inkscape:groupmode="layer"
     id="layer3"
     inkscape:label="N"
     style="display:inline"
     transform="translate(0,-452.36218)" />
  <g
     inkscape:groupmode="layer"
     id="layer4"
     inkscape:label="&amp;_RY"
     style="display:inline"
     transform="translate(0,-452.36218)" />
  <g
     inkscape:groupmode="layer"
     id="layer5"
     inkscape:label="W"
     style="display:inline"
     transform="translate(0,-452.36218)">
    <g
       id="g3025"
       transform="matrix(1.3554474,0,0,1.3554474,-204.28997,39.16388)">
      <path
         inkscape:connector-curvature="0"
         id="path3023"
         d="m 372.0625,309.21875 c -119.8169,0 -216.96875,97.15185 -216.96875,216.96875 0,119.8169 97.15185,216.9375 216.96875,216.9375 C 491.8794,743.125 589,646.0044 589,526.1875 589,406.3706 491.8794,309.21875 372.0625,309.21875 z m 0,20.3125 c 108.59899,0 196.625,88.05726 196.625,196.65625 0,108.59899 -88.02601,196.625 -196.625,196.625 -108.59899,0 -196.65625,-88.02601 -196.65625,-196.625 0,-108.59899 88.05726,-196.65625 196.65625,-196.65625 z"
         style="fill:#000000;fill-opacity:1;display:inline" />
      <path
         sodipodi:nodetypes="szcczcczczzzzcczczcccczzzcczss"
         inkscape:connector-curvature="0"
         id="path3045"
         d="m 338.11746,350.66145 c 1.14054,-0.30561 1.44616,1.19628 1.49799,3.20998 0.0518,2.0137 -3.20998,7.91794 -3.20998,7.91794 l 0,328.27353 c 0,0 4.05105,5.74786 3.42398,7.91794 -0.62707,2.17008 -4.06597,2.78198 -4.06597,2.78198 l -26.5358,-8.55993 c 0,0 -1.76046,-1.55674 -1.71199,-3.42398 0.0485,-1.86724 3.63797,-6.41995 3.63797,-6.41995 0,0 1.41803,-2.35444 0.214,-6.84795 -1.20403,-4.49351 -69.20075,-223.84232 -70.61947,-223.84232 -1.41872,0 -20.9209,26.23265 -17.22219,84.64801 3.6987,58.41535 45.04798,99.96948 45.04798,101.4998 0,1.53032 2.79038,15.17268 2.79038,15.17268 l 4.01117,11.85911 c 0,0 0.41439,3.74462 -1.04639,4.70877 -1.46078,0.96415 -5.58076,-1.04639 -5.58076,-1.04639 0,0 -73.9252,-46.3328 -73.48976,-145.12917 0.43544,-98.79636 75,-144.72621 75,-144.72621 l 2.70516,0.1209 2.44053,3.19146 0,21.5893 c 0,0 -4.92614,7.09744 -6.75839,12.39038 -1.83225,5.29294 -3.03831,11.83013 -3.2434,19.22117 -0.20509,7.39104 -0.31837,10.22219 2.77183,24.71546 3.0902,14.49327 45.0422,141.36323 45.0422,141.36323 l 0,-234.91242 c 0,0 -5.58991,-2.11713 -6.00562,-4.15774 -0.41571,-2.04061 1.10053,-3.94091 2.77183,-4.38873 9.17032,-2.45718 19.72007,-4.87216 28.1347,-7.12685 z"
         style="fill:#000000;fill-opacity:1;display:inline" />
      <path
         sodipodi:nodetypes="ccccc"
         inkscape:connector-curvature="0"
         id="path3048"
         d="m 346.48023,462.62068 0,16.03105 53.11648,0 0,-16.03105 z"
         style="fill:#000000;fill-opacity:1;display:inline" />
      <path
         sodipodi:nodetypes="ccsccsccsccccscccsscccccscccc"
         inkscape:connector-curvature="0"
         id="path3050"
         d="m 386.46875,495.6875 -39.65625,0.125 c 0,0 -3.5,1.78842 -3.5,4.5625 0,2.77408 3.1875,9.59375 3.1875,9.59375 l 0,80.84375 c 0,0 -2.1678,3.07759 -1.96875,4.40625 0.19905,1.32866 2.125,2.4375 2.125,2.4375 l 15.65625,0 c 0,0 1.56222,-1.04327 1.375,-3.1875 -0.18722,-2.14423 -5.1875,-7.90625 -5.1875,-7.90625 l 0,-45.90625 13.0625,0 2.96875,4.75 c 0,0 16.46875,44.54403 16.46875,45.65625 0,1.11221 -1.45483,3.0682 -1.53125,4.21875 -0.0764,1.15055 1.09375,2.46875 1.09375,2.46875 l 11.96875,0 c 0,0 1.9797,-1.4364 2.125,-3.46875 0.1453,-2.03235 -2.20225,-4.78225 -3.21875,-7.53125 -1.0165,-2.749 -12.96875,-41.09375 -12.96875,-41.09375 l -1.09375,-5 c 14.04377,-3.34759 15.03642,-13.14829 15.21875,-21.875 0,-23.22996 -16.125,-23.09375 -16.125,-23.09375 z m -1.125,10.90625 c 0,0 5.01634,2.69709 5.375,11.0625 0.35866,8.36542 -4.25,11.0625 -4.25,11.0625 l -28,0 0,-22.03125 z"
         style="fill:#000000;fill-opacity:1;display:inline" />
      <path
         sodipodi:nodetypes="zczzcczcczzcczzzzcccz"
         inkscape:connector-curvature="0"
         id="path2998"
         d="m 346.4489,609.26444 c -0.0327,-2.03998 2.23036,-2.60208 2.23036,-2.60208 0,0 10.67353,-0.32736 11.89524,0 1.22171,0.32736 4.96107,11.56157 6.61818,14.85081 1.65711,3.28923 8.80846,17.30351 8.80846,17.30351 l 14.49733,-27.13602 c 0,0 -2.00645,-2.145 -2.0445,-3.15967 -0.038,-1.01467 1.11518,-2.04449 1.11518,-2.04449 l 15.05492,0 c 0,0 1.33475,0.83963 1.30104,2.04449 -0.0337,1.20486 -1.0394,0.5319 -5.20417,7.24866 -4.16477,6.71676 -18.02872,34.01296 -18.02872,34.01296 l 0,39.96058 c 0,0 3.90312,8.62833 3.90312,10.40833 0,1.78 -1.78103,4.46072 -4.08899,4.46072 -2.30796,0 -11.39724,0 -12.82455,0 -1.42731,0 -1.34603,-2.31572 -1.30105,-4.08899 0.045,-1.77327 2.23036,-5.94762 2.23036,-5.94762 l 0,-44.04957 -18.21459,-34.75641 c 0,0 -5.91495,-4.46523 -5.94762,-6.50521 z"
         style="fill:#000000;fill-opacity:1;display:inline" />
      <path
         inkscape:connector-curvature="0"
         id="path3000"
         d="m 371.9375,343.65625 c -17.15318,0 -18.375,10.26879 -18.375,18.1875 0,7.91871 5.15625,17.72362 5.15625,23.0625 0,5.33888 -18.21875,16.78462 -18.21875,37.53125 0,20.74663 15.07067,30.3125 27.5625,30.3125 12.49183,0 18.55831,-8.21875 20.46875,-8.21875 1.91044,0 6.64823,6.28125 8.84375,6.28125 2.19552,0 3.21875,-1.125 3.21875,-1.125 l 0,-10.8125 c 0,-1.68366 -3.0625,-1.93558 -3.0625,-6.75 0,-4.81442 3.25,-7.54065 3.25,-12.40625 0,-4.8656 -4.97464,-11.33938 -6.28125,-12.09375 -1.30661,-0.75437 -4.09281,-0.10421 -5.1875,0.96875 -1.09469,1.07296 -1.93359,2.69141 -0.78125,3.84375 1.15234,1.15234 3.21875,5.5 3.21875,5.5 0,0 -0.6005,5.18802 -3.21875,5 -2.61825,-0.18802 -15.0139,-29.93288 -15,-32.71875 0.0139,-2.78587 14.03125,-18.83119 14.03125,-29.8125 0,-1.10247 1.52818,-16.75 -15.625,-16.75 z M 371.75,352.5 c 3.21226,-0.0411 5.8125,1.84522 5.8125,6.125 0,4.27978 -6.83916,14.90097 -8.375,15.3125 -1.53584,0.41153 -4.6875,-9.44983 -4.6875,-13.375 0,-3.92517 4.03774,-8.02144 7.25,-8.0625 z m -8.53125,47.0625 c 1.20061,-0.0302 17.12092,32.50825 17.5625,34.15625 0.44158,1.648 -1.98374,6.125 -12.5625,6.125 -10.57876,0 -15.625,-9.69301 -15.625,-16.75 0,-7.05699 9.42439,-23.50105 10.625,-23.53125 z"
         style="fill:#000000;fill-opacity:1;display:inline" />
      <path
         sodipodi:nodetypes="zcczzzczzcczzzzzzszzzszzzzzcczzzz"
         inkscape:connector-curvature="0"
         id="path3001"
         d="m 403.47451,352.87405 c 0,2.44227 5.10368,19.56412 5.10368,19.56412 l 0,328.05341 c 0,0 4.7822,1.14977 9.07321,0 4.29101,-1.14977 22.297,-7.13735 24.66781,-8.50614 2.37081,-1.36879 2.55925,-2.42956 2.55184,-4.25307 -0.007,-1.82351 -3.11892,-5.10368 -3.11892,-5.10368 0,0 -0.63321,-8.89643 0,-13.89336 0.63321,-4.99693 26.46257,-112.28103 28.92087,-112.28103 2.45831,0 13.0614,29.59046 15.59459,36.29286 l 3.40245,15.02751 c 0,0 -1.69398,15.11486 -3.68599,20.41473 -1.99201,5.29987 -3.77158,8.30819 -6.80491,11.34152 -3.03333,3.03333 -2.55184,4.16898 -2.55184,6.52138 0,2.3524 -2.10783,19.11717 -2.83538,21.83242 -0.72755,2.71525 0.45526,4.82014 2.2683,4.82014 1.81304,0 23.08033,-16.68374 26.65257,-21.54888 3.57224,-4.86514 49.33561,-51.95316 49.33561,-125.04024 0,-98.32195 -76.19624,-148.85742 -78.82356,-148.85742 -2.62732,0 -4.5366,2.15206 -4.5366,4.25307 0,2.10101 0,22.00091 0,24.10072 0,2.09981 56.99112,51.90985 56.99112,110.5798 0,54.98396 -15.99487,78.54002 -18.14642,78.54002 -2.15155,0 -36.81968,-96.61218 -37.14348,-97.8206 -0.3238,-1.20842 -2.38182,-4.03645 -4.25307,-3.96953 -1.87125,0.0669 -3.14837,1.96312 -3.68599,3.96953 -0.53762,2.00641 -25.10804,105.72178 -25.80195,108.3115 -0.69391,2.58972 -3.96953,5.38722 -3.96953,5.38722 l 0,-240.15664 c 0,0 3.96953,-7.50301 3.96953,-9.92383 0,-2.42082 -0.67128,-4.16431 -3.11892,-4.82015 -2.44764,-0.65584 -23.81734,-5.11863 -26.93611,-5.9543 -3.11877,-0.83567 -3.11891,0.67665 -3.11891,3.11892 z"
         style="fill:#000000;fill-opacity:1" />
    </g>
  </g>
</svg>
