<?xml version="1.0" encoding="UTF-8" standalone="no"?>
<!-- Created with Inkscape (http://www.inkscape.org/) -->

<svg
   xmlns:dc="http://purl.org/dc/elements/1.1/"
   xmlns:cc="http://creativecommons.org/ns#"
   xmlns:rdf="http://www.w3.org/1999/02/22-rdf-syntax-ns#"
   xmlns:svg="http://www.w3.org/2000/svg"
   xmlns="http://www.w3.org/2000/svg"
   xmlns:xlink="http://www.w3.org/1999/xlink"
   xmlns:sodipodi="http://sodipodi.sourceforge.net/DTD/sodipodi-0.dtd"
   xmlns:inkscape="http://www.inkscape.org/namespaces/inkscape"
   width="600"
   height="600"
   id="svg2"
   version="1.1"
   inkscape:version="0.48.4 r9939"
   sodipodi:docname="lvrr_flag.svg">
  <defs
     id="defs4" />
  <sodipodi:namedview
     id="base"
     pagecolor="#ffffff"
     bordercolor="#666666"
     borderopacity="1.0"
     inkscape:pageopacity="0.0"
     inkscape:pageshadow="2"
     inkscape:zoom="0.59"
     inkscape:cx="245.24871"
     inkscape:cy="260.75903"
     inkscape:document-units="px"
     inkscape:current-layer="layer5"
     showgrid="false"
     inkscape:window-width="1280"
     inkscape:window-height="748"
     inkscape:window-x="-8"
     inkscape:window-y="-8"
     inkscape:window-maximized="1" />
  <metadata
     id="metadata7">
    <rdf:RDF>
      <cc:Work
         rdf:about="">
        <dc:format>image/svg+xml</dc:format>
        <dc:type
           rdf:resource="http://purl.org/dc/dcmitype/StillImage" />
        <dc:title />
      </cc:Work>
    </rdf:RDF>
  </metadata>
  <g
     inkscape:groupmode="layer"
     id="layer1"
     inkscape:label="Layer"
     style="opacity:0;display:none"
     sodipodi:insensitive="true"
     transform="translate(0,-452.36218)">
    <image
       y="441.47305"
       x="281.10669"
       id="image3036"
       xlink:href="file:///C:/Users/robozni/Pictures/Trains/logos/Lehigh%20Valley/lvflag.gif"
       height="168"
       width="183" />
  </g>
  <g
     inkscape:groupmode="layer"
     id="layer2"
     inkscape:label="Flag Background"
     style="display:inline"
     transform="translate(0,-452.36218)" />
  <g
     inkscape:groupmode="layer"
     id="layer3"
     inkscape:label="Flag W Diamond"
     style="display:inline"
     transform="translate(0,-452.36218)" />
  <g
     inkscape:groupmode="layer"
     id="layer4"
     inkscape:label="Flag B Diamond"
     style="display:inline"
     transform="translate(0,-452.36218)" />
  <g
     inkscape:groupmode="layer"
     id="layer6"
     inkscape:label="Flag Pole"
     style="display:inline"
     transform="translate(0,-452.36218)" />
  <g
     inkscape:groupmode="layer"
     id="layer5"
     inkscape:label="LV"
     style="display:inline"
     transform="translate(0,-452.36218)">
    <g
       id="g3112"
       transform="matrix(4.0549682,0,0,4.0549682,-1220.152,-1362.0133)">
      <path
         sodipodi:nodetypes="caczzzzzzzczczzczzzzzzc"
         inkscape:connector-curvature="0"
         id="path3035"
         d="m 309.76139,466.46197 c 0,0 13.10791,24.38389 15.9436,37.74403 2.82287,13.29972 0.75922,40.78091 0.75922,40.78091 0,0 9.6676,-2.32851 15.18438,-2.38612 5.51678,-0.0576 11.25196,2.64331 17.5705,2.38612 6.31854,-0.25719 15.51569,-4.31109 19.7397,-4.33839 4.22401,-0.0273 11.02639,3.42854 16.4859,3.47071 5.45951,0.0422 10.70284,-2.91914 15.61822,-3.03687 4.91538,-0.11773 8.8604,2.08845 13.44902,1.95227 4.58862,-0.13618 9.92772,-2.63047 13.66594,-2.81995 3.73822,-0.18948 8.45987,0.86768 8.45987,0.86768 0,0 -12.32487,-16.55272 -15.18438,-21.25814 -2.85951,-4.70542 -15.61822,-13.66594 -15.61822,-13.66594 0,0 4.78156,-2.56926 8.24295,-5.85683 3.46139,-3.28757 7.54086,-10.65552 11.49675,-14.53363 3.95589,-3.87811 11.71366,-8.89371 11.71366,-8.89371 0,0 -11.52278,-4.03411 -18.87201,-4.98915 -7.34923,-0.95504 -16.42982,0.95397 -24.94577,0 -8.51595,-0.95397 -18.20338,-4.60239 -25.59653,-5.20607 -7.39315,-0.60368 -12.05991,0.71731 -18.22126,0.43383 -6.16135,-0.28348 -11.99965,-1.69199 -18.6551,-1.73535 -6.65545,-0.0434 -15.81409,1.63344 -21.04121,1.73535 -5.22712,0.10191 -10.19523,-0.65075 -10.19523,-0.65075 z"
         style="fill:#ed1f24;fill-opacity:1;display:inline" />
      <path
         sodipodi:nodetypes="ccccc"
         inkscape:connector-curvature="0"
         id="path3038"
         d="m 337.96095,505.50752 34.70716,-23.64425 34.70716,23.64425 -34.70716,27.76573 z"
         style="fill:#ffffff;fill-opacity:1;display:inline" />
      <path
         sodipodi:nodetypes="ccccc"
         inkscape:connector-curvature="0"
         id="path3038-1"
         d="m 342.15885,505.75678 30.50926,-20.78444 30.50926,20.78444 -30.50926,24.4074 z"
         style="fill:#000000;fill-opacity:1;display:inline" />
      <g
         transform="translate(0.52927085,0)"
         id="g3089"
         style="display:inline">
        <path
           sodipodi:type="arc"
           style="fill:#000000;fill-opacity:1"
           id="path3085"
           sodipodi:cx="307.14389"
           sodipodi:cy="459.81912"
           sodipodi:rx="3.9535818"
           sodipodi:ry="3.9535818"
           d="m 311.09747,459.81912 c 0,2.18351 -1.77008,3.95358 -3.95358,3.95358 -2.1835,0 -3.95358,-1.77007 -3.95358,-3.95358 0,-2.1835 1.77008,-3.95358 3.95358,-3.95358 2.1835,0 3.95358,1.77008 3.95358,3.95358 z"
           transform="matrix(1.1875,0,0,1.1875,-58.083676,-87.20448)" />
        <path
           style="fill:#000000;fill-opacity:1"
           d="m 326.82475,587.66238 c 0,0 2.73457,1.05854 4.10185,1.05854 1.36728,0 4.10185,-0.7939 4.10185,-0.7939 l -25.93428,-126.2311 -3.70489,0 z"
           id="path3087"
           inkscape:connector-curvature="0"
           sodipodi:nodetypes="czcccc" />
      </g>
      <path
         sodipodi:nodetypes="ccccccc"
         inkscape:connector-curvature="0"
         id="path3060"
         d="m 356.99585,499.47227 3.14345,0 0,10.21621 5.85825,0 0,3.21489 -9.0017,0 z"
         style="fill:#ffffff;fill-opacity:1" />
      <path
         sodipodi:nodetypes="cccccccc"
         inkscape:connector-curvature="0"
         id="path3062"
         d="m 375.07069,499.61058 3.14345,0 4.82234,9.00627 5.12543,-9.00627 2.98324,0 -6.71555,13.1499 -2.78624,0 z"
         style="fill:#ffffff;fill-opacity:1" />
    </g>
  </g>
</svg>
